<svg width="25" height="24" viewBox="0 0 25 24" fill="none" xmlns="http://www.w3.org/2000/svg">
<path d="M9.46309 22L9.06309 18.8C8.84642 18.7167 8.64225 18.6167 8.45059 18.5C8.25892 18.3833 8.07142 18.2583 7.88809 18.125L4.91309 19.375L2.16309 14.625L4.73809 12.675C4.72142 12.5583 4.71309 12.4458 4.71309 12.3375V11.6625C4.71309 11.5542 4.72142 11.4417 4.73809 11.325L2.16309 9.375L4.91309 4.625L7.88809 5.875C8.07142 5.74167 8.26309 5.61667 8.46309 5.5C8.66309 5.38333 8.86309 5.28333 9.06309 5.2L9.46309 2H14.9631L15.3631 5.2C15.5798 5.28333 15.7839 5.38333 15.9756 5.5C16.1673 5.61667 16.3548 5.74167 16.5381 5.875L19.5131 4.625L22.2631 9.375L19.6881 11.325C19.7048 11.4417 19.7131 11.5542 19.7131 11.6625V12.3375C19.7131 12.4458 19.6964 12.5583 19.6631 12.675L22.2381 14.625L19.4881 19.375L16.5381 18.125C16.3548 18.2583 16.1631 18.3833 15.9631 18.5C15.7631 18.6167 15.5631 18.7167 15.3631 18.8L14.9631 22H9.46309ZM11.2131 20H13.1881L13.5381 17.35C14.0548 17.2167 14.5339 17.0208 14.9756 16.7625C15.4173 16.5042 15.8214 16.1917 16.1881 15.825L18.6631 16.85L19.6381 15.15L17.4881 13.525C17.5714 13.2917 17.6298 13.0458 17.6631 12.7875C17.6964 12.5292 17.7131 12.2667 17.7131 12C17.7131 11.7333 17.6964 11.4708 17.6631 11.2125C17.6298 10.9542 17.5714 10.7083 17.4881 10.475L19.6381 8.85L18.6631 7.15L16.1881 8.2C15.8214 7.81667 15.4173 7.49583 14.9756 7.2375C14.5339 6.97917 14.0548 6.78333 13.5381 6.65L13.2131 4H11.2381L10.8881 6.65C10.3714 6.78333 9.89225 6.97917 9.45059 7.2375C9.00892 7.49583 8.60475 7.80833 8.23809 8.175L5.76309 7.15L4.78809 8.85L6.93809 10.45C6.85475 10.7 6.79642 10.95 6.76309 11.2C6.72975 11.45 6.71309 11.7167 6.71309 12C6.71309 12.2667 6.72975 12.525 6.76309 12.775C6.79642 13.025 6.85475 13.275 6.93809 13.525L4.78809 15.15L5.76309 16.85L8.23809 15.8C8.60475 16.1833 9.00892 16.5042 9.45059 16.7625C9.89225 17.0208 10.3714 17.2167 10.8881 17.35L11.2131 20ZM12.2631 15.5C13.2298 15.5 14.0548 15.1583 14.7381 14.475C15.4214 13.7917 15.7631 12.9667 15.7631 12C15.7631 11.0333 15.4214 10.2083 14.7381 9.525C14.0548 8.84167 13.2298 8.5 12.2631 8.5C11.2798 8.5 10.4506 8.84167 9.77559 9.525C9.10059 10.2083 8.76309 11.0333 8.76309 12C8.76309 12.9667 9.10059 13.7917 9.77559 14.475C10.4506 15.1583 11.2798 15.5 12.2631 15.5Z" fill="#696969" fill-opacity="0.4"/>
</svg>
