<svg width="24" height="24" viewBox="0 0 24 24" fill="none" xmlns="http://www.w3.org/2000/svg">
<path d="M12 11.9999C11.0346 11.9999 10.2099 11.6579 9.52595 10.974C8.84198 10.29 8.5 9.46534 8.5 8.49998C8.5 7.53459 8.84198 6.70992 9.52595 6.02595C10.2099 5.34198 11.0346 5 12 5C12.9653 5 13.79 5.34198 14.474 6.02595C15.158 6.70992 15.5 7.53459 15.5 8.49998C15.5 9.46534 15.158 10.29 14.474 10.974C13.79 11.6579 12.9653 11.9999 12 11.9999ZM4.5 18.0961V17.3923C4.5 16.9025 4.63302 16.449 4.89905 16.0317C5.16507 15.6144 5.52051 15.2936 5.96537 15.0692C6.95384 14.5846 7.95096 14.2211 8.95672 13.9788C9.96249 13.7365 10.9769 13.6154 12 13.6154C13.023 13.6154 14.0375 13.7365 15.0432 13.9788C16.049 14.2211 17.0461 14.5846 18.0346 15.0692C18.4794 15.2936 18.8349 15.6144 19.1009 16.0317C19.3669 16.449 19.5 16.9025 19.5 17.3923V18.0961C19.5 18.5179 19.3522 18.8765 19.0567 19.172C18.7612 19.4675 18.4025 19.6153 17.9807 19.6153H6.0192C5.59742 19.6153 5.23877 19.4675 4.94327 19.172C4.64776 18.8765 4.5 18.5179 4.5 18.0961Z" fill="#696969" fill-opacity="0.73"/>
</svg>
