<svg width="281" height="255" viewBox="0 0 281 255" fill="none" xmlns="http://www.w3.org/2000/svg">
<path d="M248.08 235.45C248.533 234.322 249.048 232.89 249.215 232.306C249.382 231.722 250.1 230.038 250.816 228.551C252.372 225.366 253.074 223.219 253.819 219.622C255.566 211.102 254.958 200.428 252.066 189.003L251.165 185.363L252.664 184.385C256.328 181.964 259.482 178.708 261.435 175.327C262.442 173.582 262.632 173.352 262.868 173.63C263.001 173.792 263.749 173.968 264.537 174.026C266.938 174.136 268.637 174.578 270.145 175.449C271.759 176.381 272.762 177.442 273.657 179.178C274.001 179.859 274.436 180.479 274.606 180.577C275.009 180.81 276.018 180.485 276.264 180.06C276.546 179.57 275.897 177.948 274.755 176.296C273.915 175.102 273.415 174.643 271.858 173.659C269.753 172.302 268.145 171.799 265.483 171.651C264.628 171.612 263.831 171.52 263.746 171.471C263.64 171.41 263.866 170.576 264.233 169.597C265.093 167.371 265.951 163.187 266.233 159.805L266.459 157.156L268.994 156.493C270.805 156.007 272.056 155.851 273.325 155.959C275.095 156.131 275.171 156.146 277.456 157.635C279.919 159.256 280.299 159.333 280.815 158.44C281.306 157.589 280.623 156.713 278.356 155.291C275.179 153.286 272.889 152.985 268.772 153.983L266.438 154.592L266.226 151.917C266.109 150.403 266.142 149.316 266.312 149.414C266.758 149.672 267.585 149.27 268.655 148.3C269.887 147.196 272.349 145.924 273.717 145.664C275.194 145.411 276.147 145.479 278.113 146.047C279.982 146.587 280.549 146.489 280.806 145.503C281.045 144.649 280.596 144.248 278.697 143.662C274.412 142.351 270.913 143.308 266.223 147.066C265.749 147.445 265.722 147.344 265.305 144.976C264.832 142.066 263.286 136.012 262.285 132.938C261.613 130.962 261.602 130.786 262.108 130.596C262.409 130.515 263.027 129.935 263.48 129.346C266.229 125.715 268.419 124.569 272.415 124.664C273.842 124.694 274.476 124.578 274.715 124.262C275.478 123.285 274.77 122.451 272.948 122.221C269.021 121.712 265.239 123.357 262.3 126.878L260.83 128.639L260.25 127.141C258.237 121.895 254.21 113.416 251.506 108.679L250.076 106.152L250.858 105.043C253.254 101.776 256.089 100.35 259.612 100.626C261.449 100.779 262.117 100.456 262.059 99.4293C262.005 98.4911 261.598 98.3128 259.332 98.1669C255.86 97.9492 252.584 99.4041 249.937 102.272L248.652 103.713L247.324 101.5C246.572 100.3 244.823 97.589 243.391 95.4577L240.832 91.5983L242.038 89.657C242.673 88.6058 243.55 87.382 243.951 86.9329C245.576 85.1486 247.866 84.174 250.609 84.0843C252.052 84.0382 252.452 83.787 252.551 82.8798C252.616 81.9817 251.742 81.5337 250.098 81.6338C245.662 81.9087 242.563 83.8912 240.205 87.9749L239.309 89.5275L237.041 86.4885C235.768 84.8176 233.43 81.8514 231.824 79.8747C229.51 77.0638 228.954 76.2607 229.228 76.0791C229.412 75.958 230.227 74.8405 231.018 73.5676C232.294 71.5536 232.637 71.156 233.911 70.2748C235.288 69.3118 235.816 69.1342 239.626 68.4701C240.415 68.33 240.632 68.1999 240.775 67.6584C240.998 66.8797 240.38 66.1829 239.437 66.1487C237.9 66.1122 235.542 66.5658 234.252 67.182C231.875 68.3055 230.79 69.3519 228.992 72.171L227.4 74.6832L225.424 72.4645C224.355 71.2239 223.396 70.1877 223.29 70.1264C223.205 70.0773 222.926 69.7747 222.69 69.4967C222.321 69.0567 222.319 68.9135 222.678 68.781C223.005 68.6574 223.299 68.1469 223.952 66.6238C225.517 62.9329 227.366 61.25 230.77 60.4076C233.068 59.8624 233.832 59.2259 233.282 58.3131C232.842 57.6049 231.843 57.5674 229.619 58.183C226.065 59.1374 223.423 61.5542 221.834 65.2877C221.409 66.3184 221.064 67.3098 221.054 67.4742C221.065 67.6509 220.934 67.6321 220.737 67.4334C220.304 66.9566 217.382 64.0215 216.428 63.0737C215.816 62.4653 215.762 62.2641 216.044 61.9728C216.243 61.7756 216.547 61.1008 216.73 60.4406C218.004 55.9294 219.8 53.8473 223.538 52.5739C224.526 52.2367 225.349 51.8897 225.423 51.7621C225.607 51.443 225.196 50.2415 224.814 50.0208C224.219 49.6773 221.055 50.7429 219.506 51.8058C217.054 53.4528 215.202 56.2686 214.373 59.6183C214.084 60.7561 214.01 60.8837 213.692 60.5018C213.109 59.796 206.905 54.3996 203.865 51.9635C198.905 47.9941 199.187 48.2419 199.807 48.3448C200.689 48.4853 200.981 48.0297 201.586 45.6567C202.533 41.808 204.441 39.5345 207.688 38.3749C209.094 37.8535 209.76 37.1892 209.563 36.4515C209.357 35.6802 208.606 35.5585 207.027 36.0365C205.213 36.5775 203.326 37.7852 202.066 39.1841C200.193 41.2506 198.335 46.3321 198.943 47.7323C199.214 48.3425 199.193 48.3302 198.544 47.7856C198.177 47.4887 196.154 46.0373 194.065 44.6038C184.24 37.8257 171.783 31.6829 158.454 27.0502C152.791 25.085 142.832 22.1709 138.265 21.151C137.137 20.8969 137.116 20.8846 137.435 20.5296C137.667 20.3234 137.756 19.5807 137.681 18.6302C137.559 16.2909 137.678 15.0549 138.179 13.5007C138.744 11.7854 139.568 10.7014 141.288 9.34082C142.859 8.09232 143.2 7.55158 142.819 6.93492C142.288 6.08926 141.569 6.15648 140.088 7.20129C138.09 8.60039 136.856 10.0999 136.052 12.1311C135.346 13.9921 134.995 17.2492 135.317 19.1934L135.514 20.4702L131.921 19.7282C129.944 19.3246 128.284 18.9617 128.221 18.9249C128.178 18.9004 128.225 18.6722 128.339 18.426C128.465 18.1585 128.493 17.3241 128.409 16.5381C127.941 12.0992 129.104 9.05532 132.14 6.83806C133.45 5.89307 133.613 5.02273 132.636 4.45854C131.892 4.02926 131.294 4.27967 129.738 5.65005C126.709 8.29673 125.481 11.6997 125.939 16.303L126.156 18.527L121.889 17.8219C119.539 17.429 115.758 16.8629 113.489 16.5738C108.221 15.8861 108.504 15.9359 109.053 15.7706C109.748 15.548 109.903 14.9852 109.625 13.4066C109.29 11.4837 109.455 8.94142 109.998 7.41174C110.461 6.11928 111.742 4.39151 112.985 3.46452C114 2.6889 114.238 1.8341 113.636 1.25919C112.981 0.626224 112.119 0.893868 110.663 2.23723C108.196 4.49936 106.887 7.60049 106.964 11.0481C107.002 13.1405 107.499 15.4691 107.967 15.7389C108.145 15.8706 107.585 15.8592 106.7 15.7735C103.449 15.3709 94.0745 14.7798 89.4854 14.6825C81.1744 14.5067 72.8 14.833 64.9468 15.6305C63.2659 15.7944 63.2234 15.7699 62.8888 15.1229C62.2016 13.762 61.5894 10.7995 61.7035 9.27724C61.8053 7.77628 61.9102 7.49651 63.2609 5.1569C64.7591 2.56205 64.8248 2.20296 63.9661 1.67882C63.18 1.22501 62.4193 1.80672 61.0728 3.89359C59.9899 5.62214 59.7254 6.17841 59.4536 7.58125C59.0571 9.59268 59.2926 12.4228 60.016 14.4569C60.3161 15.3107 60.492 16.0362 60.4094 16.1303C60.3178 16.1909 59.1265 16.4389 57.762 16.6437L55.2766 17.0237L54.4039 15.6407C52.4504 12.4994 52.0794 9.36421 53.3349 6.60092C54.1194 4.8986 54.1546 3.95467 53.4748 3.56219C52.71 3.12065 52.243 3.38985 51.4939 4.68727C50.6343 6.17612 50.1505 7.99534 50.1048 9.84066C50.0691 11.5216 51.0169 14.9331 51.9444 16.3193C52.2857 16.8566 52.5967 17.3482 52.6146 17.4152C52.6505 17.5494 46.0317 19.2013 45.6729 19.1359C45.2806 19.0796 43.5321 15.0924 43.3614 13.9162C43.0347 11.6857 43.263 10.4563 44.3356 8.35312C45.4049 6.30475 45.4882 5.4737 44.7446 5.04442C43.9586 4.59061 43.3721 5.0177 42.3529 6.78304C40.2531 10.4201 40.241 14.0714 42.353 18.4103L43.1879 20.055L42.1364 20.3554C41.5542 20.5297 40.0144 21.0871 38.6971 21.6026L36.2757 22.5585L35.4064 21.1207C34.1924 19.2004 33.4351 16.6362 33.5502 14.9161C33.6155 14.0179 33.9411 12.8163 34.4767 11.5942C35.3203 9.64237 35.3223 9.24648 34.4938 8.76814C33.6228 8.26527 32.9381 8.86251 32.0453 10.8994C30.5244 14.4169 30.9116 18.554 33.1371 22.1076L34.04 23.5364L31.858 24.7155C30.6558 25.3259 29.5844 25.9551 29.4682 26.0582C29.294 26.2129 28.8937 25.925 27.9788 25.0565C24.7892 21.9956 23.8318 19.2875 24.6016 15.6483C24.8979 14.2029 24.6771 13.3097 23.9751 13.1029C23.0875 12.8741 22.6073 13.3625 22.1882 15.0206C21.7379 16.8308 21.8167 19.3435 22.4103 21.1609C22.9288 22.7648 24.6328 25.3083 25.996 26.5775C26.5474 27.0943 26.9467 27.5801 26.8853 27.6865C26.8239 27.7928 26.4665 28.0685 26.0878 28.332C25.7001 28.5619 24.6244 29.4439 23.695 30.2686C22.7657 31.0932 22.0966 31.6144 22.2071 31.423C22.5944 30.654 22.0832 30.0186 19.7955 28.5843C17.8265 27.3341 17.472 27.016 16.6049 25.7213C15.6081 24.2099 15.2249 22.9111 15.0243 20.4131C14.9409 19.4291 14.7729 18.9351 14.4118 18.7266C12.7123 17.7454 12.0947 20.1397 13.1053 23.7859C14.0084 27.0297 15.7176 29.1225 19.1591 31.1095C20.7948 32.0539 21.1928 32.1986 21.5559 32.0112C21.9313 31.8026 21.9034 31.8999 21.4534 32.4341C20.0451 34.0883 18.9698 35.5093 18.4295 36.4452C17.9137 37.3385 17.8098 37.4203 17.3637 37.1627C17.1088 37.0155 16.1787 36.7622 15.3516 36.6249C14.4059 36.4476 13.0722 35.9612 11.9307 35.3872C9.57499 34.1689 8.55161 33.096 7.6347 30.8083C6.88577 29.0147 6.52229 28.663 5.68089 28.943C4.77243 29.2409 4.66989 29.6638 5.16721 31.2554C5.72163 32.9935 7.19285 35.2041 8.58733 36.3211C10.3486 37.735 13.9271 39.0921 16.3492 39.2143C17.0824 39.269 17.0824 39.269 16.6894 39.9496C16.4684 40.3325 16.0579 41.485 15.7881 42.492C15.5183 43.4989 15.2797 44.3538 15.2551 44.3963C15.2429 44.4176 15.0394 44.3284 14.827 44.2058C14.5933 44.0709 13.5494 44.0637 12.4743 44.2087C8.45441 44.6954 5.83516 43.8354 3.36782 41.1914C1.77847 39.4798 1.20722 39.2918 0.642351 40.2702C0.0529188 41.2911 1.316 43.1263 3.80619 44.8476C6.3601 46.6057 9.40386 47.1719 13.1107 46.5897L14.9748 46.3046L14.8969 48.5C14.7654 52.3093 15.6539 57.2463 16.9376 59.8307L17.4256 60.8498L16.784 60.7346C16.3827 60.6447 15.6419 60.8976 14.7872 61.3967C11.4356 63.3752 8.24481 63.6032 5.20266 62.1021C3.3445 61.1994 2.49278 61.1047 2.08755 61.8066C1.68231 62.5085 2.1746 63.2748 3.51296 64.0475C6.08346 65.5316 9.12489 65.9547 11.9163 65.2409C14.0831 64.6769 17.0125 63.1353 17.4914 62.3058L17.8721 61.6464L18.4484 62.6597C18.7684 63.1848 19.6241 64.3028 20.3322 65.137C21.6185 66.5886 21.6487 66.6344 21.1628 67.0345C20.8634 67.2586 20.41 67.8476 20.1276 68.3368C18.203 71.6213 14.9104 73.3503 10.9672 73.1155C9.75 73.065 9.20699 73.3187 9.0298 74.0672C8.84265 74.98 9.74717 75.4739 11.6763 75.5668C16.0185 75.7483 19.9042 73.4826 22.4451 69.2778L23.2523 67.9289L25.701 69.4277L28.1496 70.9265L27.7779 71.6194C27.5569 72.0023 27.0581 73.1606 26.6542 74.2035C25.4326 77.4969 23.5036 79.219 20.0719 80.1587C19.1668 80.4018 18.3187 80.7914 18.1959 81.0041C17.938 81.4507 18.1007 82.3954 18.4619 82.6039C18.9293 82.8738 20.6682 82.6583 22.0738 82.137C25.379 80.9257 27.7624 78.4166 29.1045 74.7674C29.5396 73.5723 29.9288 72.4075 29.9544 72.167C30.0111 71.7744 30.1329 71.7596 30.664 72.0663C31.0039 72.2625 32.3466 72.7825 33.6076 73.1985C36.3878 74.1231 36.3666 74.1108 35.951 74.4381C35.7891 74.5714 35.5608 75.8009 35.4354 77.1464C35.2759 79.238 35.1053 79.8768 34.3798 81.3297C33.3563 83.3478 32.3802 84.4007 30.6987 85.3016C28.9748 86.1779 28.534 87.2847 29.6387 87.9225C30.276 88.2904 31.3096 87.923 33.1115 86.6662C34.4431 85.7335 34.8318 85.3057 35.9025 83.5984C37.0067 81.8821 37.2131 81.3774 37.5718 79.6277C38.0028 77.4093 38.083 75.3571 37.7238 74.7527C37.5336 74.4443 37.7437 74.4238 38.5765 74.6494C39.1813 74.8284 40.7742 75.2093 42.1212 75.4765L44.5625 76.0069L44.8866 77.5552C45.8408 82.1331 45.0961 84.9928 42.2345 87.5945C41.7452 88.0493 41.2796 88.6596 41.2295 88.9427C41.0958 89.5177 41.8586 90.3551 42.4979 90.3272C43.0701 90.3173 44.2195 89.3077 45.5271 87.6805C47.5942 85.1305 48.1354 82.1817 47.4012 77.4189C47.3305 76.9527 47.3324 76.5568 47.4207 76.5511C47.5213 76.524 53.4309 77.3269 54.7387 77.5148C55.0002 77.5524 54.9813 77.6832 54.6909 77.941C54.3547 78.2289 54.3763 78.7802 54.8325 80.6884C55.5241 83.6117 55.5706 84.6595 55.0556 86.6308C54.6866 88.0059 54.5113 88.3584 53.3108 89.849C51.8133 91.7069 51.6829 92.2271 52.5138 92.8486C53.2294 93.3752 53.9925 92.9366 55.4319 91.1303C57.8607 88.0519 58.4185 84.829 57.2319 80.4573L56.4969 77.7075L60.0681 78.0961C62.0241 78.2896 63.7152 78.5003 63.846 78.5191C63.9768 78.5379 63.9881 78.7145 63.8653 78.9272C63.7548 79.1186 64.0128 80.487 64.4742 81.9445C65.022 83.7922 65.2498 85.1148 65.1835 86.2108C65.1029 87.7241 64.998 88.0038 63.6473 90.3435C62.493 92.3428 62.2374 92.9326 62.4064 93.2286C62.9973 94.3638 64.1192 93.9906 65.4245 92.2203C67.9648 88.7525 68.2952 84.7461 66.4534 79.9393L65.9697 78.6675L70.0125 79.0732C73.4987 79.4128 74.0643 79.5125 74.1383 79.9239C74.1888 80.1799 74.6008 81.1835 75.0463 82.178C76.7207 85.7538 76.7 88.0956 75.0346 91.2745C74.2142 92.8427 74.0413 93.3384 74.2159 93.7228C75.2569 96.1388 78.4159 91.8938 78.7048 87.6649C78.8444 85.9022 78.2232 82.9062 77.4308 81.286C77.1051 80.6726 76.8555 80.0747 76.8744 79.9438C76.8598 79.8219 78.932 79.9123 81.4357 80.1384L86.0049 80.5645L85.7763 81.2549C85.6648 81.6442 85.6831 82.2503 85.8487 82.6012C86.6411 84.2214 87.3496 87.4097 87.2634 88.8346C87.1593 90.1924 87.0143 90.5908 85.8477 92.6113C84.4969 94.9509 84.332 95.6781 85.0968 96.1197C85.8191 96.5367 86.6312 96.013 87.7567 94.309C90.0869 90.8617 90.3615 87.05 88.5446 82.7397C88.1147 81.6691 87.7721 80.7907 87.8056 80.7817C87.8604 80.785 95.033 81.608 95.8936 81.7363C96.0579 81.7461 96.124 81.926 96.0258 82.0962C95.9275 82.2663 96.1374 83.5218 96.4837 84.8845C97.5291 88.8628 96.9766 91.6349 94.6716 94.3027C93.7748 95.3164 93.6855 95.5201 93.7955 96.0656C94.1969 97.9705 96.2414 96.8823 98.0555 93.7892C99.6151 91.088 99.8707 87.4072 98.7652 83.8763C98.4717 82.9128 98.2566 82.108 98.3237 82.09C98.3907 82.072 100.036 82.3129 101.952 82.625C103.88 82.9158 106.036 83.2532 106.745 83.3504C108.205 83.5693 108.666 83.7508 108.063 83.9129C107.393 84.093 107.25 84.6345 107.439 86.4168C107.844 90.621 107.004 93.057 104.295 95.4918C102.437 97.1411 102.276 97.6156 103.298 98.3475C103.835 98.7424 104.024 98.7097 104.857 98.1983C107.352 96.5758 109.397 93.4745 109.856 90.6198C110.135 88.9094 109.974 85.7537 109.56 84.6071L109.248 83.7744L114.1 84.7894C116.782 85.3451 119.105 85.8354 119.29 85.8574C119.518 85.904 119.499 86.0349 119.181 86.3899C118.841 86.7327 118.748 87.1891 118.828 88.2279C118.882 88.9682 118.851 90.3963 118.791 91.3828C118.631 92.9353 118.479 93.4433 117.632 94.9109C116.809 96.3359 116.442 96.776 115.306 97.5664C113.375 98.9475 113.105 100.152 114.585 100.582C115.828 100.931 119.145 97.883 120.253 95.3749C121.288 92.9945 121.676 88.9365 121.071 86.9425L120.841 86.2137L124.108 87.0793C131.911 89.1169 141.375 92.3975 146.567 94.8847L148.352 95.717L148.291 97.6384C148.142 101.92 146.879 104.451 143.88 106.407C142.393 107.363 142.158 107.624 142.091 108.181C142.02 108.991 142.778 109.542 143.65 109.308C143.964 109.206 144.977 108.628 145.884 107.989C148.831 105.976 150.528 102.645 150.66 98.6375L150.72 96.914L151.559 97.2279C152.021 97.4094 153.693 98.29 155.287 99.2099L158.197 100.89L157.834 102.893C157.555 104.603 157.32 105.205 156.276 107.013C154.95 109.31 154.207 109.959 151.887 110.888C150.569 111.403 150.204 111.987 150.635 112.859C150.94 113.46 151.025 113.509 151.664 113.481C152.635 113.418 154.939 112.224 156.388 110.991C157.488 110.066 157.788 109.644 158.796 107.702C159.608 106.1 160.015 105.003 160.178 103.934C160.316 103.106 160.503 102.392 160.591 102.386C160.758 102.341 164.844 105.125 166.651 106.509L167.534 107.188L167.212 109.413C166.606 113.26 164.952 115.879 162.234 117.202C160.058 118.271 160 118.323 160.039 119.139C160.132 120.696 161.803 120.498 164.714 118.549C166.375 117.437 166.433 117.386 167.812 114.949C169.027 112.843 169.262 112.241 169.494 110.759C169.663 109.779 169.841 109.031 169.926 109.08C170.244 109.264 174.805 113.286 175.489 113.965C176.152 114.632 176.185 114.821 175.987 116.635C175.866 117.728 175.493 119.355 175.163 120.271C174.626 121.691 174.384 122.061 173.39 123.047C172.781 123.66 171.62 124.493 170.873 124.855C170.134 125.251 169.402 125.736 169.279 125.949C168.935 126.544 169.326 127.535 169.976 127.684C170.66 127.824 173.29 126.506 174.648 125.333C176.212 123.996 177.739 121.106 178.202 118.736C178.546 116.864 178.546 116.864 178.906 117.271C179.112 117.503 179.999 118.469 180.855 119.389C181.733 120.321 182.917 121.656 183.522 122.375C184.599 123.649 184.608 123.682 184.349 125.064C184.193 125.825 183.726 127.172 183.29 128.026C182.297 130.09 181.015 131.278 178.792 132.235C177.889 132.621 177.022 133.142 176.887 133.376C176.273 134.439 177.319 135.326 178.706 134.936C182.153 133.92 185.218 130.869 186.288 127.346C186.477 126.775 186.671 126.291 186.704 126.282C186.771 126.264 187.621 127.294 188.589 128.561L190.373 130.868L189.905 133.15C189.516 135.052 189.229 135.794 188.308 137.389C187.104 139.473 186.282 140.161 184.029 141.072C182.418 141.702 181.947 142.961 183.03 143.587C183.922 144.102 186.988 142.667 188.857 140.853C190.162 139.622 191.812 136.519 192.128 134.745L192.313 133.689L192.915 134.462C193.242 134.877 194.16 136.23 194.955 137.455C196.193 139.332 196.377 139.75 196.188 140.322C196.068 140.678 195.813 141.807 195.665 142.799C195.448 144.205 195.158 145.002 194.458 146.214C193.389 148.064 192.353 149.026 190.443 149.88C188.555 150.747 188.047 151.871 189.216 152.546C190.278 153.159 193.885 151.13 195.701 148.917C196.712 147.657 197.785 145.356 198.018 143.874C198.084 143.515 198.186 143.092 198.248 142.986C198.444 142.645 200.455 145.933 208.868 160.404C215.927 172.562 219.903 178.431 223.513 181.99C224.24 182.693 224.246 182.781 223.915 184.434C223.683 185.718 223.323 186.587 222.537 187.949C221.312 190.021 220.42 190.782 217.962 191.801C217.105 192.157 216.391 192.511 216.341 192.596C216.108 193 216.471 194.089 216.896 194.334C217.533 194.702 219.905 193.831 221.662 192.605C223.867 191.042 225.118 189.07 226.201 185.527L226.402 184.934L229.525 186.737L232.635 188.561L232.364 190.503C232.143 192.162 231.93 192.776 231.058 194.286C229.986 196.191 229.231 196.861 226.594 198.288C225.593 198.845 225.411 199.307 225.906 200.217C226.241 200.863 227.566 200.579 229.404 199.457C232.383 197.632 234.006 195.166 234.678 191.499C234.851 190.464 235.062 189.509 235.115 189.369C235.195 189.131 239.581 189.14 239.589 189.371C239.598 189.405 239.814 190.55 240.06 191.94C240.873 196.125 240.254 198.717 237.957 201.077C236.703 202.366 236.46 202.935 236.9 203.643C237.613 204.764 239.185 203.856 241.027 201.205C242.882 198.532 243.359 195.008 242.38 191.209L241.8 188.975L244.113 188.353C245.701 187.909 246.42 187.842 246.373 188.07C246.339 188.277 246.495 189.331 246.748 190.413C247.624 194.294 248.154 197.889 247.964 198.659C247.79 199.353 247.453 199.838 245.429 202.215C244.802 202.959 244.868 203.678 245.548 204.07C246.058 204.364 247.06 204.149 247.343 203.66C247.462 203.502 247.823 203.172 248.18 202.896L248.804 202.405L248.683 204.037C248.344 208.01 246.761 214.725 245.177 218.744C244.215 221.195 241.428 226.023 240.019 227.677C234.233 234.461 226.622 237.44 216.633 236.834C211.266 236.514 207.379 235.348 202.705 232.65C199.136 230.589 196.681 228.661 193.425 225.42C187.507 219.48 182.713 212.968 171.758 195.98C168.243 190.491 163.763 183.679 161.826 180.803C144.221 154.729 127.814 138.649 107.563 127.609C96.5902 121.642 84.873 117.26 76.6888 116.079C67.4918 114.74 55.6249 115.375 41.9041 117.946C32.0309 119.79 16.2223 124.161 15.6084 125.225C15.2277 125.884 15.4159 126.588 16.0721 126.825C16.3304 126.918 19.6336 126.102 23.4374 125.009C38.8658 120.559 51.4134 118.304 63.1999 117.905C72.816 117.587 78.6585 118.408 87.2419 121.35C104.518 127.241 119.696 136.57 133.135 149.548C141.88 158 149.47 167.175 158.23 179.918C160.808 183.646 177.971 209.947 177.858 209.995C177.846 210.016 175.96 207.935 173.696 205.38C171.432 202.825 167.518 198.467 164.994 195.677C162.47 192.886 159.027 188.743 157.297 186.44C145.457 170.643 135.081 159.179 124.519 150.245C108.071 136.296 90.4473 127.965 71.5727 125.235C57.4945 123.176 39.2413 127.072 20.1557 136.188C14.8474 138.71 12.0152 140.279 11.6837 140.853C11.3153 141.491 11.4554 142.083 12.0715 142.439C12.6238 142.757 12.8707 142.673 15.9711 141.032C27.9335 134.638 42.0373 129.735 53.5691 127.914C56.9441 127.367 62.835 127.025 66.0484 127.15C69.3165 127.279 75.1099 128.185 79.6058 129.277C99.5716 134.14 117.173 145.011 134.88 163.402C138.562 167.229 144.9 174.405 144.995 174.829C145.01 174.95 144.84 174.852 144.591 174.595C140.288 170.324 130.485 162.282 123.834 157.563C120.185 155.003 108.11 148.003 104.502 146.402C91.4014 140.54 79.3554 137.414 66.7108 136.551C52.2164 135.556 33.3319 139.711 15.6639 147.746C12.113 149.382 11.8014 149.628 11.9518 150.594C12.1291 151.66 12.9808 151.755 14.6344 150.951C16.6969 149.93 23.297 147.133 26.0625 146.121C40.308 140.875 55.2436 138.211 66.1815 138.939C78.1477 139.751 90.0997 142.794 102.363 148.145C106.678 150.041 118.506 156.784 122.5 159.629C131.089 165.75 138.89 172.353 147.149 180.468C151.114 184.345 156.915 190.389 158.31 192.045C158.8 192.668 163.404 199.069 168.484 206.313C181.473 224.73 185.234 229.794 190.682 236.059C196.489 242.73 201.28 246.942 206.451 249.956C209.859 251.952 211.931 252.779 215.305 253.508C221.814 254.941 230.609 253.298 236.819 249.509C241.486 246.674 245.826 241.267 248.08 235.45ZM241.969 241.423C240.094 243.885 238.846 245.065 236.083 246.957C229.972 251.115 221.305 252.634 214.339 250.767C204.096 248.001 194.067 238.24 177.563 214.872C175.771 212.335 174.005 209.897 173.67 209.448C172.324 207.707 173.427 208.741 175.854 211.504C177.264 213.084 180.461 216.574 182.958 219.264C193.388 230.39 200.677 236.555 207.877 240.372C216.356 244.87 223.27 245.6 232.681 243.037C237.219 241.8 239.69 240.561 244.382 237.144C244.831 236.808 244.8 236.96 244.063 238.236C243.606 239.078 242.64 240.506 241.969 241.423ZM243.675 234.297C240.443 237.394 236.726 239.416 231.886 240.734C223.929 242.89 217.649 242.384 210.617 239.061L208.844 238.207L211.018 238.612C218.331 240.026 225.93 239.423 231.594 237.021C239.323 233.741 245.186 226.775 248.365 217.097C248.783 215.835 249.153 214.801 249.208 214.804C249.622 214.675 248.867 222.803 248.126 226.686C247.655 229.023 247.534 229.379 246.47 230.977C245.817 231.961 244.608 233.418 243.675 234.297ZM251.748 213.888C251.756 212.107 251.659 208.988 251.551 206.969C251.33 203.523 251.367 199.829 251.623 199.779C251.791 199.734 252.225 204.721 252.354 207.687C252.427 210.112 252.085 216.494 251.86 216.931C251.787 217.059 251.739 215.67 251.748 213.888ZM248.683 188.042C248.555 187.628 248.301 187.283 248.127 187.239C247.68 187.18 247.877 186.839 248.431 186.762C248.775 186.706 248.896 186.889 249.002 187.687C249.194 188.876 248.995 189.073 248.683 188.042Z" fill="#DFAE00"/>
</svg>
