<svg width="197" height="189" viewBox="0 0 197 189" fill="none" xmlns="http://www.w3.org/2000/svg">
<path id="Vector" d="M92.3502 2.4464C83.0208 3.90126 82.0471 4.07762 81.7108 4.38622C81.0027 5.06223 53.5632 33.8069 53.28 34.1743C53.0144 34.5123 53.0676 35.1736 54.2005 44.0204C56.0947 58.7454 56.9445 65.2555 58.1837 75.0281C58.821 79.9953 59.7415 87.1373 60.2195 90.8994C60.6975 94.6615 61.742 102.759 62.5209 108.902C63.2998 115.044 64.2204 122.186 64.5567 124.758C64.8931 127.345 65.1409 129.475 65.1232 129.49C65.0878 129.52 64.5921 129.182 63.9902 128.741L62.9104 127.932L61.7243 128.3C61.0692 128.506 60.4851 128.653 60.4496 128.608C60.3611 128.55 59.6176 123.994 55.4043 97.9533L53.5809 86.7112L46.4113 82.1114C39.9497 77.9673 38.7282 77.2619 34.0901 74.8812C31.2399 73.4263 28.7261 72.1625 28.4606 72.0743C28.0357 71.9127 27.8764 71.9714 26.5487 72.7062C25.7343 73.1471 22.4416 74.94 19.202 76.7034C15.9801 78.4669 13.2892 79.9806 13.2538 80.0834C13.2007 80.1716 10.2266 84.0219 6.65064 88.6216C2.40195 94.0884 0.135986 97.1304 0.135986 97.3655C0.135986 97.5712 3.65886 104.978 7.97836 113.825C15.8207 129.916 20.0694 138.66 28.3898 155.781C34.7805 168.933 34.7274 168.83 35.046 169.11C35.2054 169.242 39.2062 171.373 43.9152 173.856C49.4208 176.737 52.625 178.338 52.8551 178.309C53.103 178.28 54.1297 177.192 56.1479 174.782C57.7588 172.872 59.1219 171.343 59.175 171.402C59.2281 171.461 61.1755 175.047 63.4945 179.367C65.8136 183.688 67.7963 187.303 67.9026 187.391C68.1681 187.626 75.4617 188.978 75.621 188.816C75.7095 188.758 76.6124 186.48 77.6391 183.776L79.4979 178.853L79.3209 177.045C79.2147 176.046 79.1616 175.135 79.197 175.032C79.2324 174.885 80.7194 175.326 84.4724 176.575C87.3403 177.545 89.8541 178.338 90.0488 178.338C90.2613 178.338 90.5091 178.265 90.6153 178.177C90.9163 177.927 95.7138 176.002 95.7669 176.119C95.7846 176.164 97.2716 178.25 99.0596 180.763C101.255 183.835 102.423 185.334 102.653 185.363C102.919 185.392 115.86 181.425 116.072 181.248C116.107 181.234 116.851 179.676 117.754 177.824C118.657 175.958 119.4 174.429 119.418 174.415C119.436 174.385 120.356 175.179 121.471 176.178C125.189 179.499 126.269 180.396 126.57 180.396C126.747 180.396 131.367 177.442 136.873 173.812L146.857 167.243L154.629 156.148C158.895 150.049 170.172 133.958 179.661 120.394L196.921 95.7343L195.859 91.4432C195.257 89.0772 193.894 83.6398 192.814 79.3633C191.734 75.0722 190.53 70.2814 190.141 68.709C189.734 67.1366 189.344 65.7405 189.256 65.5936C189.061 65.2849 189.751 65.4466 181.307 63.8595C177.359 63.1247 173.5 62.3899 172.721 62.2282C171.942 62.0813 171.093 61.949 170.845 61.949C170.473 61.949 166.578 64.9322 151.549 76.6447C141.192 84.7273 132.571 91.4873 132.412 91.6783C132.199 91.9134 131.19 96.3809 128.907 107.138C127.136 115.456 125.667 122.289 125.632 122.319C125.596 122.348 123.968 122.319 122.02 122.26C118.745 122.172 118.462 122.142 118.462 121.893C118.462 121.613 118.657 120.203 120.763 105.742C122.958 90.5908 128.322 54.8216 131.031 37.3338C131.615 33.5277 132.182 29.7509 132.306 28.9279L132.5 27.4437L131.633 26.6354C131.155 26.1945 124.587 20.1987 117.046 13.3212C107.061 4.20987 103.237 0.815186 102.972 0.82988C102.777 0.844574 97.9974 1.56465 92.3502 2.4464Z" fill="#B12F8D"/>
</svg>
