<svg width="126" height="81" viewBox="0 0 126 81" fill="none" xmlns="http://www.w3.org/2000/svg">
<g id="306246 1" clip-path="url(#clip0_151_2927)">
<g id="Group">
<path id="Vector" d="M99.6709 83.0385C99.8243 82.6565 99.9988 82.1715 100.055 81.9737C100.112 81.776 100.355 81.2056 100.598 80.7023C101.124 79.6237 101.362 78.8966 101.614 77.6787C102.206 74.7936 102 71.1794 101.021 67.3106L100.716 66.0781L101.223 65.7471C102.464 64.927 103.532 63.8247 104.193 62.6796C104.534 62.089 104.598 62.0109 104.678 62.105C104.723 62.1598 104.977 62.2196 105.244 62.2392C106.056 62.2765 106.632 62.4262 107.143 62.7211C107.689 63.0367 108.029 63.3959 108.332 63.9838C108.448 64.2143 108.595 64.4242 108.653 64.4574C108.79 64.5363 109.131 64.4263 109.215 64.2822C109.31 64.1166 109.09 63.5671 108.704 63.0077C108.419 62.6034 108.25 62.448 107.723 62.1149C107.01 61.6553 106.465 61.4851 105.564 61.4351C105.274 61.4216 105.005 61.3906 104.976 61.374C104.94 61.3533 105.016 61.071 105.141 60.7395C105.432 59.9858 105.722 58.569 105.818 57.4237L105.894 56.5268L106.753 56.3023C107.366 56.1377 107.79 56.0847 108.219 56.1214C108.819 56.1795 108.845 56.1847 109.618 56.689C110.452 57.2377 110.581 57.264 110.756 56.9615C110.922 56.6735 110.69 56.3766 109.923 55.8951C108.847 55.2164 108.072 55.1144 106.678 55.4523L105.887 55.6585L105.816 54.7528C105.776 54.2402 105.787 53.8721 105.845 53.9053C105.996 53.9925 106.276 53.8565 106.638 53.5279C107.055 53.1542 107.889 52.7233 108.352 52.6354C108.852 52.5497 109.175 52.5727 109.841 52.765C110.474 52.948 110.665 52.9147 110.753 52.5809C110.833 52.2915 110.682 52.1558 110.038 51.9573C108.587 51.5134 107.403 51.8377 105.814 53.1101C105.654 53.2384 105.645 53.2043 105.504 52.4025C105.344 51.4171 104.82 49.367 104.481 48.3262C104.253 47.6571 104.25 47.5973 104.421 47.533C104.523 47.5055 104.732 47.3094 104.886 47.11C105.816 45.8803 106.558 45.4924 107.911 45.5245C108.395 45.5347 108.609 45.4953 108.69 45.3884C108.948 45.0573 108.709 44.7749 108.092 44.6972C106.762 44.5249 105.481 45.0818 104.486 46.2741L103.988 46.8703L103.792 46.3632C103.11 44.5868 101.747 41.7157 100.831 40.1117L100.347 39.2559L100.612 38.8806C101.423 37.7742 102.383 37.2912 103.576 37.3846C104.198 37.4365 104.424 37.3271 104.404 36.9795C104.386 36.6618 104.249 36.6015 103.481 36.552C102.306 36.4783 101.196 36.971 100.3 37.942L99.8647 38.4301L99.4149 37.6807C99.1603 37.2744 98.5682 36.3564 98.0833 35.6347L97.2169 34.3278L97.6251 33.6705C97.8402 33.3145 98.137 32.9001 98.2728 32.748C98.8231 32.1438 99.5987 31.8138 100.527 31.7834C101.016 31.7678 101.151 31.6828 101.185 31.3756C101.207 31.0715 100.911 30.9198 100.354 30.9537C98.8522 31.0467 97.8028 31.7181 97.0045 33.1009L96.7009 33.6266L95.9331 32.5975C95.502 32.0318 94.7104 31.0273 94.1665 30.358C93.3828 29.4062 93.1945 29.1343 93.2876 29.0728C93.3496 29.0317 93.6256 28.6534 93.8937 28.2223C94.3258 27.5403 94.4419 27.4057 94.8731 27.1073C95.3395 26.7812 95.5181 26.7211 96.8085 26.4962C97.0756 26.4488 97.149 26.4047 97.1974 26.2214C97.2729 25.9577 97.0638 25.7217 96.7444 25.7102C96.224 25.6978 95.4255 25.8514 94.9886 26.0601C94.1839 26.4405 93.8162 26.7948 93.2076 27.7494L92.6685 28.6001L91.9992 27.8488C91.6375 27.4287 91.3126 27.0778 91.2766 27.0571C91.2478 27.0405 91.1535 26.938 91.0736 26.8438C90.9486 26.6949 90.9478 26.6464 91.0696 26.6015C91.1801 26.5596 91.2799 26.3868 91.501 25.871C92.0307 24.6212 92.6571 24.0514 93.8096 23.7661C94.5876 23.5815 94.8463 23.366 94.6603 23.0569C94.511 22.8171 94.1731 22.8044 93.4197 23.0128C92.2164 23.336 91.3219 24.1544 90.7839 25.4186C90.6399 25.7676 90.5228 26.1033 90.5194 26.159C90.5233 26.2188 90.479 26.2125 90.4123 26.1452C90.2658 25.9837 89.2762 24.9899 88.9531 24.6689C88.746 24.4629 88.7278 24.3948 88.8231 24.2961C88.8904 24.2294 88.9936 24.0009 89.0555 23.7773C89.4866 22.2497 90.0951 21.5447 91.3607 21.1135C91.6952 20.9993 91.9741 20.8818 91.999 20.8386C92.0614 20.7306 91.9222 20.3237 91.7927 20.249C91.5913 20.1327 90.5198 20.4935 89.9955 20.8534C89.1651 21.4111 88.5379 22.3646 88.2571 23.4988C88.1594 23.8841 88.1344 23.9273 88.0268 23.798C87.8291 23.559 85.7286 21.7317 84.699 20.9068C83.0196 19.5627 83.1151 19.6466 83.3251 19.6815C83.6238 19.7291 83.7224 19.5748 83.9274 18.7712C84.2482 17.468 84.8941 16.6982 85.9936 16.3055C86.4696 16.129 86.6954 15.904 86.6286 15.6542C86.5588 15.393 86.3044 15.3518 85.7698 15.5137C85.1557 15.6969 84.5167 16.1058 84.0898 16.5795C83.4556 17.2793 82.8266 18.9999 83.0324 19.4741C83.1242 19.6807 83.117 19.6765 82.8974 19.4921C82.7731 19.3916 82.0882 18.9001 81.3805 18.4147C78.0538 16.1195 73.8357 14.0395 69.3223 12.4708C67.4046 11.8053 64.0322 10.8186 62.486 10.4732C62.1041 10.3872 62.0969 10.383 62.2047 10.2628C62.2833 10.193 62.3134 9.94146 62.2882 9.61963C62.2468 8.8275 62.287 8.40898 62.4566 7.8827C62.6481 7.30185 62.9271 6.93481 63.5097 6.47409C64.0415 6.05132 64.1568 5.86822 64.028 5.65941C63.848 5.37305 63.6047 5.39581 63.1031 5.74961C62.4267 6.22336 62.0089 6.73114 61.7365 7.41891C61.4973 8.04907 61.3785 9.152 61.4876 9.81034L61.5545 10.2427L60.3375 9.99143C59.6683 9.85474 59.1063 9.73188 59.0847 9.71942C59.0703 9.71111 59.0861 9.63383 59.1247 9.55046C59.1674 9.45988 59.177 9.17737 59.1485 8.9112C58.99 7.4081 59.3837 6.37741 60.4118 5.62661C60.8555 5.30662 60.9106 5.01191 60.5797 4.82086C60.3279 4.6755 60.1255 4.7603 59.5986 5.22433C58.5728 6.12054 58.1569 7.27283 58.312 8.8316L58.3856 9.58467L56.9408 9.34593C56.1449 9.21286 54.8648 9.02118 54.0965 8.92328C52.3126 8.69042 52.4084 8.7073 52.5942 8.65131C52.8295 8.57593 52.882 8.38536 52.7878 7.85082C52.6746 7.19968 52.7304 6.33884 52.9143 5.82087C53.0711 5.38322 53.5048 4.79817 53.9258 4.48427C54.2692 4.22164 54.35 3.93218 54.1459 3.73751C53.9244 3.52318 53.6323 3.61381 53.1395 4.06869C52.304 4.83469 51.8607 5.88478 51.8869 7.05221C51.8999 7.76071 52.068 8.54921 52.2263 8.64058C52.2869 8.68517 52.0973 8.68132 51.7975 8.6523C50.6965 8.51597 47.5222 8.31579 45.9683 8.28287C43.154 8.22332 40.3183 8.33384 37.6591 8.60386C37.0899 8.65937 37.0756 8.65106 36.9623 8.432C36.7296 7.97116 36.5222 6.96801 36.5609 6.45255C36.5954 5.9443 36.6309 5.84957 37.0883 5.05734C37.5956 4.17868 37.6178 4.05709 37.327 3.8796C37.0609 3.72594 36.8033 3.92292 36.3473 4.62956C35.9806 5.21488 35.8911 5.40324 35.799 5.87826C35.6648 6.55937 35.7445 7.51768 35.9895 8.20646C36.0911 8.4956 36.1507 8.74126 36.1227 8.77312C36.0917 8.79362 35.6883 8.87762 35.2262 8.94696L34.3846 9.07564L34.0891 8.60734C33.4276 7.54362 33.302 6.48201 33.7271 5.54631C33.9928 4.96987 34.0047 4.65025 33.7745 4.51735C33.5155 4.36783 33.3574 4.45899 33.1038 4.89832C32.8127 5.40246 32.6489 6.01848 32.6334 6.64334C32.6213 7.21252 32.9422 8.36771 33.2563 8.83711C33.3719 9.01906 33.4772 9.1855 33.4832 9.20821C33.4954 9.25363 31.2542 9.81301 31.1327 9.79087C30.9998 9.77179 30.4078 8.42166 30.35 8.02339C30.2393 7.26811 30.3166 6.8518 30.6798 6.13963C31.0419 5.44602 31.0701 5.16461 30.8183 5.01925C30.5522 4.86558 30.3536 5.0102 30.0085 5.60798C29.2974 6.83954 29.2933 8.07595 30.0085 9.54514L30.2912 10.1021L29.9351 10.2038C29.738 10.2628 29.2166 10.4516 28.7705 10.6261L27.9506 10.9498L27.6562 10.4629C27.2452 9.81269 26.9888 8.94443 27.0277 8.36195C27.0498 8.05783 27.1601 7.65094 27.3415 7.2371C27.6271 6.57619 27.6278 6.44214 27.3472 6.28016C27.0523 6.10988 26.8204 6.31212 26.5181 7.00184C26.0031 8.19293 26.1343 9.59383 26.8878 10.7971L27.1936 11.2809L26.4547 11.6802C26.0476 11.8869 25.6848 12.1 25.6455 12.1349C25.5865 12.1872 25.4509 12.0898 25.1412 11.7957C24.0611 10.7592 23.7369 9.84219 23.9976 8.60989C24.0979 8.12046 24.0232 7.81802 23.7854 7.74799C23.4849 7.6705 23.3223 7.83588 23.1804 8.39734C23.0279 9.01031 23.0546 9.86116 23.2556 10.4766C23.4312 11.0197 24.0081 11.8809 24.4698 12.3107C24.6565 12.4857 24.7917 12.6502 24.7709 12.6862C24.7501 12.7222 24.6291 12.8156 24.5008 12.9048C24.3695 12.9827 24.0053 13.2813 23.6906 13.5606C23.3759 13.8398 23.1493 14.0163 23.1868 13.9515C23.3179 13.6911 23.1448 13.4759 22.3702 12.9903C21.7034 12.5669 21.5834 12.4592 21.2898 12.0208C20.9522 11.509 20.8225 11.0692 20.7545 10.2233C20.7263 9.89015 20.6694 9.72287 20.5471 9.65227C19.9717 9.32001 19.7625 10.1308 20.1048 11.3654C20.4105 12.4638 20.9893 13.1725 22.1546 13.8453C22.7085 14.1651 22.8433 14.2141 22.9663 14.1507C23.0934 14.08 23.0839 14.113 22.9315 14.2939C22.4547 14.854 22.0906 15.3352 21.9076 15.6521C21.733 15.9545 21.6978 15.9822 21.5467 15.895C21.4604 15.8452 21.1455 15.7594 20.8654 15.7129C20.5452 15.6529 20.0935 15.4882 19.707 15.2938C18.9093 14.8813 18.5628 14.518 18.2523 13.7433C17.9987 13.136 17.8756 13.0169 17.5907 13.1117C17.2831 13.2126 17.2484 13.3558 17.4168 13.8947C17.6045 14.4832 18.1027 15.2318 18.5749 15.6101C19.1713 16.0888 20.383 16.5484 21.2032 16.5897C21.4514 16.6083 21.4514 16.6083 21.3184 16.8387C21.2435 16.9684 21.1045 17.3586 21.0132 17.6996C20.9218 18.0406 20.841 18.33 20.8327 18.3444C20.8286 18.3516 20.7597 18.3215 20.6877 18.2799C20.6086 18.2342 20.2551 18.2318 19.8911 18.2809C18.5299 18.4457 17.643 18.1545 16.8075 17.2592C16.2693 16.6796 16.0759 16.616 15.8846 16.9473C15.685 17.293 16.1127 17.9144 16.9559 18.4973C17.8207 19.0926 18.8514 19.2843 20.1066 19.0871L20.7378 18.9906L20.7114 19.734C20.6669 21.0239 20.9677 22.6957 21.4024 23.5708L21.5677 23.9159L21.3504 23.8769C21.2145 23.8464 20.9637 23.9321 20.6743 24.1011C19.5393 24.771 18.4589 24.8482 17.4288 24.3399C16.7996 24.0343 16.5112 24.0022 16.374 24.2399C16.2367 24.4775 16.4034 24.737 16.8566 24.9987C17.727 25.5012 18.7569 25.6445 19.7021 25.4028C20.4358 25.2118 21.4278 24.6898 21.59 24.4089L21.7189 24.1856L21.914 24.5287C22.0224 24.7065 22.3121 25.0851 22.5519 25.3676C22.9874 25.8591 22.9977 25.8746 22.8331 26.0101C22.7318 26.086 22.5782 26.2855 22.4826 26.4511C21.8309 27.5633 20.716 28.1487 19.3807 28.0692C18.9686 28.0521 18.7847 28.138 18.7247 28.3915C18.6613 28.7006 18.9676 28.8678 19.6209 28.8993C21.0912 28.9607 22.407 28.1935 23.2674 26.7697L23.5407 26.313L24.3698 26.8205L25.199 27.328L25.0731 27.5626C24.9983 27.6923 24.8294 28.0845 24.6926 28.4377C24.279 29.5528 23.6258 30.136 22.4637 30.4542C22.1573 30.5365 21.8701 30.6684 21.8285 30.7404C21.7412 30.8917 21.7963 31.2116 21.9186 31.2822C22.0768 31.3735 22.6657 31.3006 23.1416 31.124C24.2608 30.7139 25.0679 29.8643 25.5223 28.6286C25.6697 28.2239 25.8015 27.8295 25.8101 27.7481C25.8293 27.6151 25.8706 27.6101 26.0504 27.7139C26.1655 27.7804 26.6202 27.9565 27.0471 28.0974C27.9886 28.4104 27.9814 28.4063 27.8407 28.5171C27.7858 28.5622 27.7085 28.9785 27.6661 29.4342C27.6121 30.1424 27.5543 30.3587 27.3086 30.8507C26.9621 31.534 26.6315 31.8906 26.0622 32.1956C25.4784 32.4924 25.3292 32.8672 25.7032 33.0831C25.919 33.2077 26.269 33.0833 26.8792 32.6577C27.3301 32.3419 27.4617 32.197 27.8242 31.6189C28.1981 31.0377 28.268 30.8668 28.3895 30.2744C28.5355 29.5232 28.5626 28.8283 28.441 28.6236C28.3766 28.5192 28.4477 28.5123 28.7297 28.5886C28.9345 28.6493 29.4739 28.7782 29.93 28.8687L30.7567 29.0483L30.8664 29.5726C31.1895 31.1227 30.9374 32.0911 29.9684 32.972C29.8027 33.1261 29.645 33.3327 29.6281 33.4286C29.5828 33.6233 29.8411 33.9069 30.0575 33.8974C30.2513 33.894 30.6405 33.5522 31.0833 33.0012C31.7832 32.1377 31.9665 31.1392 31.7179 29.5264C31.6939 29.3686 31.6946 29.2345 31.7245 29.2326C31.7586 29.2234 33.7596 29.4953 34.2025 29.5589C34.2911 29.5716 34.2846 29.6159 34.1863 29.7032C34.0725 29.8007 34.0798 29.9874 34.2342 30.6336C34.4684 31.6234 34.4842 31.9782 34.3098 32.6457C34.1848 33.1114 34.1255 33.2307 33.719 33.7355C33.2119 34.3646 33.1678 34.5407 33.4491 34.7512C33.6914 34.9295 33.9498 34.781 34.4372 34.1693C35.2597 33.1269 35.4485 32.0356 35.0467 30.5553L34.7978 29.6242L36.0071 29.7558C36.6694 29.8213 37.2421 29.8926 37.2864 29.899C37.3307 29.9053 37.3345 29.9652 37.2929 30.0372C37.2555 30.102 37.3428 30.5654 37.4991 31.0589C37.6846 31.6845 37.7617 32.1324 37.7393 32.5035C37.712 33.0159 37.6765 33.1107 37.2191 33.9029C36.8282 34.5799 36.7417 34.7796 36.7989 34.8799C36.999 35.2643 37.3789 35.1379 37.8209 34.5384C38.6811 33.3642 38.7929 32.0075 38.1693 30.3799L38.0055 29.9492L39.3745 30.0866C40.5549 30.2016 40.7465 30.2354 40.7715 30.3747C40.7886 30.4614 40.9281 30.8012 41.079 31.1379C41.646 32.3488 41.6389 33.1417 41.075 34.2182C40.7972 34.7492 40.7387 34.917 40.7978 35.0472C41.1503 35.8653 42.22 34.4279 42.3178 32.9959C42.3651 32.399 42.1547 31.3845 41.8864 30.8359C41.7761 30.6282 41.6916 30.4257 41.698 30.3814C41.693 30.3401 42.3947 30.3708 43.2425 30.4473L44.7898 30.5916L44.7123 30.8254C44.6746 30.9572 44.6808 31.1624 44.7369 31.2812C45.0052 31.8299 45.2451 32.9095 45.2159 33.392C45.1806 33.8517 45.1315 33.9866 44.7365 34.6708C44.2791 35.4631 44.2233 35.7093 44.4822 35.8588C44.7268 36 45.0018 35.8227 45.3829 35.2457C46.172 34.0784 46.265 32.7877 45.6497 31.3282C45.5042 30.9656 45.3881 30.6682 45.3995 30.6651C45.418 30.6662 47.8468 30.9449 48.1382 30.9884C48.1939 30.9917 48.2162 31.0526 48.183 31.1102C48.1497 31.1678 48.2208 31.593 48.338 32.0544C48.692 33.4015 48.505 34.3402 47.7244 35.2436C47.4208 35.5868 47.3905 35.6558 47.4277 35.8405C47.5637 36.4856 48.256 36.117 48.8703 35.0697C49.3984 34.155 49.4849 32.9086 49.1106 31.713C49.0112 31.3868 48.9384 31.1142 48.9611 31.1081C48.9838 31.102 49.5409 31.1836 50.1897 31.2893C50.8426 31.3878 51.5727 31.502 51.8127 31.5349C52.307 31.6091 52.4633 31.6705 52.259 31.7254C52.032 31.7864 51.9836 31.9698 52.0476 32.5733C52.1848 33.9969 51.9004 34.8218 50.9832 35.6462C50.3538 36.2047 50.2995 36.3654 50.6455 36.6132C50.8273 36.7469 50.8912 36.7358 51.1734 36.5627C52.0182 36.0133 52.7108 34.9631 52.8661 33.9965C52.9607 33.4173 52.9062 32.3487 52.7659 31.9605L52.6601 31.6785L54.3032 32.0222C55.2113 32.2104 55.9978 32.3764 56.0606 32.3839C56.1379 32.3996 56.1315 32.4439 56.0237 32.5642C55.9087 32.6802 55.877 32.8348 55.9041 33.1866C55.9225 33.4372 55.9118 33.9208 55.8916 34.2548C55.8375 34.7805 55.7861 34.9526 55.4992 35.4495C55.2206 35.932 55.0962 36.0811 54.7115 36.3487C54.0578 36.8164 53.9661 37.2244 54.4673 37.3697C54.8882 37.4879 56.0116 36.4559 56.3868 35.6066C56.7371 34.8006 56.8686 33.4265 56.6638 32.7513L56.5856 32.5045L57.6921 32.7976C60.3342 33.4876 63.5389 34.5984 65.2971 35.4406L65.9016 35.7225L65.8809 36.3731C65.8304 37.8228 65.4026 38.6801 64.3872 39.3422C63.8837 39.6661 63.8039 39.7545 63.7814 39.9431C63.7573 40.2173 64.0141 40.404 64.3092 40.3247C64.4155 40.29 64.7586 40.0944 65.0658 39.8781C66.0637 39.1962 66.6382 38.0683 66.6831 36.7114L66.7035 36.1278L66.9874 36.2341C67.1438 36.2956 67.7101 36.5937 68.2496 36.9052L69.2351 37.4742L69.1122 38.1523C69.0176 38.7314 68.9383 38.9353 68.5849 39.5475C68.1358 40.3253 67.8842 40.545 67.0984 40.8595C66.6523 41.0341 66.5287 41.2316 66.6746 41.5271C66.7777 41.7307 66.8065 41.7473 67.0229 41.7378C67.3518 41.7164 68.1319 41.3122 68.6225 40.8944C68.995 40.5813 69.0967 40.4384 69.438 39.7808C69.7128 39.2384 69.8507 38.8667 69.9061 38.505C69.9528 38.2247 70.0159 37.9826 70.0458 37.9806C70.1025 37.9654 71.486 38.9082 72.0979 39.3767L72.3967 39.6068L72.2878 40.3602C72.0825 41.6629 71.5226 42.5496 70.6021 42.9976C69.8655 43.3598 69.8458 43.3772 69.8589 43.6536C69.8903 44.1807 70.4564 44.1138 71.4418 43.4536C72.0043 43.0774 72.024 43.0599 72.4908 42.2347C72.9025 41.5217 72.9818 41.3179 73.0606 40.816C73.1179 40.4841 73.1779 40.2307 73.2067 40.2473C73.3146 40.3096 74.8588 41.6717 75.0906 41.9016C75.3152 42.1273 75.3262 42.1912 75.2593 42.8056C75.2182 43.1756 75.0918 43.7268 74.98 44.0368C74.7983 44.5176 74.7163 44.6431 74.3797 44.9769C74.1736 45.1844 73.7805 45.4665 73.5274 45.5892C73.2774 45.7233 73.0292 45.8873 72.9876 45.9594C72.8712 46.161 73.0035 46.4967 73.2238 46.547C73.4554 46.5944 74.346 46.1483 74.8056 45.751C75.3355 45.2983 75.8526 44.3197 76.0091 43.517C76.1256 42.8832 76.1256 42.8832 76.2475 43.0209C76.3172 43.0995 76.6176 43.4266 76.9077 43.7381C77.205 44.0538 77.6057 44.506 77.8106 44.7491C78.1754 45.1806 78.1784 45.192 78.0905 45.6598C78.0377 45.9174 77.8798 46.3736 77.732 46.6628C77.3957 47.3616 76.9619 47.7642 76.209 48.0881C75.9033 48.2189 75.6097 48.3951 75.564 48.4743C75.3561 48.8344 75.7101 49.1349 76.1797 49.0027C77.347 48.6587 78.3848 47.6254 78.7473 46.4327C78.8111 46.2391 78.8769 46.0754 78.8882 46.0723C78.9109 46.0662 79.1988 46.4149 79.5264 46.8441L80.1306 47.625L79.9722 48.3978C79.8402 49.0418 79.7431 49.2931 79.4312 49.8332C79.0237 50.539 78.7453 50.772 77.9822 51.0804C77.437 51.2938 77.2772 51.7201 77.644 51.9319C77.9462 52.1063 78.9843 51.6206 79.6171 51.0064C80.0592 50.5895 80.6178 49.5388 80.7249 48.9381L80.7875 48.5805L80.9913 48.8422C81.1019 48.9828 81.4129 49.4409 81.6819 49.8555C82.1013 50.4913 82.1634 50.6328 82.0996 50.8265C82.0588 50.9469 81.9724 51.3292 81.9223 51.6652C81.8488 52.1413 81.7506 52.4111 81.5136 52.8216C81.1518 53.4482 80.8009 53.7737 80.1543 54.063C79.5149 54.3564 79.3429 54.7373 79.7386 54.9657C80.0983 55.1734 81.3198 54.4862 81.9347 53.7369C82.2769 53.3103 82.6404 52.5311 82.7192 52.0292C82.7414 51.9076 82.7762 51.7644 82.797 51.7284C82.8635 51.6132 83.5443 52.7265 86.3933 57.6267C88.7834 61.7434 90.1298 63.7307 91.3522 64.9358C91.5984 65.174 91.6003 65.2039 91.4883 65.7634C91.4098 66.1983 91.2878 66.4927 91.0217 66.9536C90.607 67.6553 90.3048 67.9129 89.4724 68.2582C89.1822 68.3787 88.9405 68.4984 88.9238 68.5273C88.8448 68.6641 88.9677 69.0327 89.1116 69.1158C89.3274 69.2404 90.1306 68.9455 90.7253 68.5302C91.472 68.0011 91.8958 67.3335 92.2625 66.1336L92.3305 65.9327L93.3879 66.5432L94.4412 67.161L94.3493 67.8185C94.2743 68.3802 94.2022 68.5883 93.907 69.0996C93.5441 69.7447 93.2884 69.9716 92.3956 70.4549C92.0566 70.6433 91.995 70.7998 92.1625 71.1077C92.2758 71.3268 92.7246 71.2306 93.3469 70.8505C94.3558 70.2326 94.9052 69.3974 95.1329 68.1557C95.1913 67.8053 95.263 67.4818 95.2808 67.4344C95.308 67.3541 96.793 67.3569 96.7957 67.4353C96.7988 67.4466 96.8721 67.8346 96.9553 68.3052C97.2306 69.7221 97.0212 70.5999 96.2432 71.3991C95.8185 71.8357 95.7362 72.0282 95.8854 72.2681C96.1268 72.6475 96.659 72.3402 97.2829 71.4424C97.9109 70.5374 98.0724 69.3439 97.7408 68.0577L97.5446 67.3011L98.3279 67.0907C98.8656 66.9402 99.1089 66.9174 99.0931 66.9947C99.0814 67.0648 99.1342 67.4218 99.22 67.7882C99.5165 69.1021 99.6959 70.3196 99.6318 70.5803C99.5729 70.8152 99.4587 70.9797 98.7735 71.7844C98.561 72.0362 98.5835 72.2797 98.8136 72.4126C98.9863 72.5123 99.3257 72.4394 99.4214 72.2737C99.4618 72.2203 99.584 72.1083 99.705 72.015L99.9161 71.8488L99.8752 72.4013C99.7603 73.7466 99.2244 76.0204 98.688 77.3815C98.3623 78.2114 97.4184 79.8463 96.9415 80.4064C94.9823 82.7035 92.405 83.7121 89.0225 83.507C87.2051 83.3988 85.889 83.0038 84.3064 82.0901C83.0979 81.3924 82.2664 80.7395 81.1639 79.642C79.1601 77.6305 77.5366 75.4256 73.8272 69.6733C72.6368 67.8145 71.1199 65.5079 70.4642 64.5339C64.5028 55.7049 58.9471 50.2599 52.0896 46.5216C48.3741 44.5013 44.4065 43.0172 41.6351 42.6175C38.5209 42.1639 34.5026 42.3791 29.8565 43.2497C26.5132 43.8738 21.1602 45.3542 20.9523 45.7143C20.8234 45.9376 20.8872 46.176 21.1094 46.2563C21.1968 46.2876 22.3153 46.0115 23.6034 45.6412C28.8277 44.1345 33.0765 43.3706 37.0676 43.2358C40.3238 43.128 42.3021 43.4059 45.2086 44.4022C51.0586 46.3969 56.1979 49.5561 60.7488 53.9505C63.7099 56.8124 66.2802 59.9193 69.2465 64.2342C70.1193 65.4967 75.9309 74.4025 75.8926 74.4188C75.8885 74.426 75.2499 73.7213 74.4833 72.8561C73.7168 71.991 72.3915 70.5153 71.5367 69.5705C70.6819 68.6256 69.5161 67.2227 68.9304 66.4428C64.9212 61.0936 61.4077 57.2117 57.8311 54.1865C52.2615 49.4633 46.294 46.6421 39.9028 45.7177C35.1356 45.0204 28.9548 46.3398 22.4921 49.4265C20.6947 50.2805 19.7356 50.8119 19.6234 51.0064C19.4986 51.2225 19.5461 51.4227 19.7547 51.5431C19.9417 51.6511 20.0253 51.6226 21.0752 51.0668C25.1258 48.9017 29.9016 47.2417 33.8065 46.6249C34.9493 46.4397 36.944 46.3238 38.0321 46.3662C39.1388 46.4098 41.1005 46.7165 42.6229 47.0866C49.3836 48.7332 55.3438 52.4144 61.3398 58.6417C62.5865 59.9377 64.7325 62.3675 64.7648 62.5109C64.7697 62.5522 64.7122 62.519 64.6281 62.432C63.1708 60.9857 59.8514 58.2626 57.5993 56.6646C56.3638 55.7977 52.2748 53.4273 51.0532 52.8852C46.6171 50.9002 42.5381 49.8416 38.2564 49.5494C33.3484 49.2125 26.9538 50.6197 20.9711 53.3402C19.7687 53.8944 19.6632 53.9775 19.7142 54.3046C19.7742 54.6657 20.0626 54.6978 20.6225 54.4257C21.3209 54.0799 23.5558 53.1328 24.4923 52.79C29.316 51.0136 34.3735 50.1116 38.0772 50.3582C42.1292 50.633 46.1763 51.6637 50.3288 53.4753C51.7901 54.1174 55.795 56.4008 57.1475 57.3641C60.0558 59.4369 62.6974 61.6727 65.4942 64.4205C66.8367 65.7334 68.8012 67.7798 69.2735 68.3406C69.4394 68.5516 70.9982 70.7192 72.7184 73.172C77.1169 79.4085 78.3905 81.1233 80.235 83.2445C82.2015 85.5034 83.8237 86.9298 85.5748 87.9503C86.7288 88.6262 87.4303 88.9064 88.573 89.1532C90.7771 89.6383 93.7551 89.0818 95.8577 87.799C97.4383 86.839 98.9077 85.0082 99.6709 83.0385ZM97.6017 85.0608C96.9668 85.8946 96.5444 86.2941 95.6085 86.9349C93.5393 88.3426 90.6047 88.857 88.2457 88.2248C84.7773 87.2883 81.3814 83.9833 75.7927 76.0704C75.1858 75.2111 74.5881 74.3858 74.4744 74.2338C74.0188 73.6442 74.3922 73.9942 75.214 74.9297C75.6916 75.4647 76.7741 76.6466 77.6198 77.5574C81.1514 81.3249 83.6196 83.4125 86.0578 84.705C88.9286 86.228 91.2699 86.4754 94.4567 85.6073C95.9933 85.1885 96.8302 84.769 98.4189 83.6121C98.571 83.4982 98.5604 83.5497 98.3109 83.9819C98.156 84.2669 97.8289 84.7503 97.6017 85.0608ZM98.1795 82.648C97.0849 83.6965 95.8263 84.3815 94.1875 84.8277C91.493 85.5575 89.3667 85.3862 86.9854 84.2611L86.385 83.972L87.1212 84.109C89.5974 84.5879 92.1708 84.3836 94.0886 83.5703C96.7056 82.4597 98.6909 80.1008 99.7677 76.8238C99.9089 76.3964 100.034 76.0462 100.053 76.0473C100.193 76.0036 99.9374 78.7559 99.6866 80.0707C99.5271 80.8621 99.4863 80.9826 99.126 81.5236C98.9048 81.8568 98.4953 82.3502 98.1795 82.648ZM100.913 75.7372C100.916 75.134 100.883 74.0779 100.846 73.3941C100.772 72.2275 100.784 70.9767 100.871 70.9595C100.927 70.9442 101.075 72.6329 101.118 73.6375C101.143 74.4584 101.027 76.6194 100.951 76.7676C100.926 76.8108 100.91 76.3405 100.913 75.7372ZM99.8753 66.9854C99.8317 66.845 99.7457 66.7281 99.687 66.7134C99.5356 66.6933 99.6022 66.578 99.7899 66.552C99.9064 66.5328 99.9473 66.5948 99.9831 66.8652C100.048 67.2676 99.9808 67.3344 99.8753 66.9854Z" fill="black" fill-opacity="0.18"/>
<path id="Vector_2" d="M106.861 67.8781C106.946 67.0153 106.472 65.81 105.739 65.0698C105.413 64.7375 104.286 64.0483 103.915 63.9592C103.626 63.8787 103.358 64.1272 103.424 64.3956C103.467 64.536 103.645 64.6769 104.245 65.033C105.455 65.7606 105.979 66.5144 106.033 67.65C106.068 68.3039 106.313 68.5606 106.681 68.3218C106.782 68.2645 106.831 68.1296 106.861 67.8781Z" fill="black" fill-opacity="0.18"/>
<path id="Vector_3" d="M110.71 60.7954C110.519 60.08 109.639 59.1114 108.85 58.7514C108.147 58.4228 106.943 58.217 106.396 58.3334C106.049 58.4022 105.932 58.8534 106.22 59.0195C106.285 59.0569 106.646 59.1119 107.028 59.1495C107.401 59.183 107.956 59.3017 108.266 59.4132C108.739 59.5904 108.865 59.6724 109.205 60.013C109.427 60.2273 109.688 60.5893 109.794 60.8042C109.9 61.0191 110.069 61.2415 110.177 61.3038C110.543 61.5156 110.831 61.2496 110.71 60.7954Z" fill="black" fill-opacity="0.18"/>
<path id="Vector_4" d="M104.252 69.8385C104.463 68.5585 104.142 67.5374 103.159 66.4322C102.616 65.8113 102.346 65.6463 102.093 65.769C101.902 65.8508 101.782 66.1081 101.852 66.2538C101.875 66.2962 102.089 66.5249 102.323 66.7661C102.839 67.2848 103.204 67.8317 103.365 68.3181C103.501 68.7135 103.497 69.5849 103.35 70.1051C103.233 70.5563 103.357 70.7909 103.704 70.7706C104.003 70.7511 104.128 70.5351 104.252 69.8385Z" fill="black" fill-opacity="0.18"/>
<path id="Vector_5" d="M110.018 48.1717C109.996 47.8612 109.811 47.7831 109.042 47.7523C108.214 47.7253 107.439 47.9213 106.821 48.3427C106.038 48.8696 105.109 50.0137 105.197 50.343C105.248 50.5361 105.515 50.6712 105.698 50.6038C105.786 50.5681 106.048 50.2969 106.286 50.0018C107.119 48.9564 108.094 48.4817 109.211 48.5893C109.485 48.613 109.784 48.5936 109.862 48.5423C110.055 48.4235 110.043 48.4451 110.018 48.1717Z" fill="black" fill-opacity="0.18"/>
<path id="Vector_6" d="M107.914 42.2804C107.852 42.0718 107.831 42.0594 107.32 41.947C106.755 41.8128 105.883 41.8279 105.383 41.9806C104.821 42.1558 104.105 42.616 103.598 43.111C102.976 43.7407 102.843 44.0197 103.055 44.2669C103.271 44.5256 103.476 44.4522 103.934 43.958C104.381 43.4668 104.755 43.1837 105.254 42.934C105.76 42.6885 106.214 42.6336 106.993 42.747C107.351 42.7907 107.685 42.8105 107.743 42.7767C107.924 42.6795 107.986 42.5044 107.914 42.2804Z" fill="black" fill-opacity="0.18"/>
<path id="Vector_7" d="M106.79 39.8742C106.715 39.5904 105.851 39.2745 105.017 39.2248C104.412 39.1925 103.409 39.468 102.843 39.8329C101.825 40.4837 101.419 40.9885 101.684 41.2762C101.883 41.4966 102.126 41.4254 102.65 40.9985C103.792 40.0831 104.665 39.8669 105.838 40.2273C106.116 40.3109 106.411 40.3657 106.493 40.3557C106.678 40.3182 106.839 40.0559 106.79 39.8742Z" fill="black" fill-opacity="0.18"/>
<path id="Vector_8" d="M103.484 33.9895C103.489 33.7142 103.079 33.5445 102.438 33.5585C101.074 33.5778 100.104 34.1123 99.1732 35.342C98.7085 35.9475 98.6205 36.2328 98.8133 36.4305C99.0666 36.6728 99.3322 36.5285 99.8064 35.89C100.681 34.724 101.453 34.3342 102.732 34.4104C103.307 34.4446 103.492 34.3401 103.484 33.9895Z" fill="black" fill-opacity="0.18"/>
<path id="Vector_9" d="M99.6831 28.7607C99.5283 28.1816 97.484 28.3169 96.4955 28.9658C96.0033 29.2866 95.4035 29.9102 95.0629 30.4337C94.8531 30.7639 94.8206 30.87 94.8858 31.0229C95.0632 31.4134 95.3788 31.3651 95.7346 30.8984C96.6962 29.6482 97.5447 29.1586 98.6831 29.2301C98.9912 29.2448 99.3148 29.2491 99.3901 29.235C99.5706 29.2048 99.7317 28.9424 99.6831 28.7607Z" fill="black" fill-opacity="0.18"/>
<path id="Vector_10" d="M89.5141 17.8002C89.4322 17.4936 89.1294 17.4532 88.3874 17.6586C87.1376 18.0125 86.3206 18.7796 85.7906 20.0964C85.466 20.9078 85.4348 21.1778 85.6317 21.3683C85.8286 21.5589 86.2384 21.4305 86.2954 21.1657C86.4509 20.5641 86.8341 19.7675 87.1431 19.3985C87.6074 18.86 87.9362 18.656 88.7175 18.4157C89.3884 18.2173 89.584 18.0613 89.5141 17.8002Z" fill="black" fill-opacity="0.18"/>
<path id="Vector_11" d="M83.7758 13.6517C83.6753 13.344 83.3797 13.3078 82.7675 13.5209C81.6937 13.9188 81.165 14.353 80.6244 15.2892C80.2793 15.887 79.9371 16.9282 79.9861 17.2254C80.0192 17.4173 80.2698 17.5812 80.4628 17.5294C80.6444 17.4806 80.7537 17.2748 80.9288 16.6558C81.0285 16.3004 81.1993 15.9381 81.4621 15.5328C81.9097 14.8406 82.3111 14.5441 83.1719 14.2825C83.7406 14.1115 83.8794 13.9708 83.7758 13.6517Z" fill="black" fill-opacity="0.18"/>
<path id="Vector_12" d="M80.8087 11.9963C80.7987 11.7312 80.4323 11.6349 79.9071 11.7638C78.546 12.1111 77.6102 12.9345 77.1153 14.2236C76.6967 15.2975 76.7269 15.6606 77.231 15.6347C77.4516 15.6181 77.5023 15.5801 77.5994 15.3289C78.0901 14.047 78.137 13.9492 78.4573 13.5771C78.8948 13.0519 79.2814 12.8142 80.0318 12.5944C80.6417 12.4184 80.8176 12.2799 80.8087 11.9963Z" fill="black" fill-opacity="0.18"/>
<path id="Vector_13" d="M63.3241 36.3661C63.591 35.3391 63.4793 34.7849 63.0358 34.8553C62.8213 34.8947 62.74 35.0686 62.5566 35.8846C62.4197 36.4874 62.3362 36.6984 62.0205 37.1788C61.6144 37.799 61.2937 38.0555 60.5181 38.3855C59.9036 38.6358 59.796 38.9385 60.2276 39.1877C60.465 39.3248 61.1649 39.0759 61.8443 38.6135C62.2249 38.3531 62.3451 38.2112 62.7451 37.5683C63.0547 37.0653 63.2422 36.6741 63.3241 36.3661Z" fill="black" fill-opacity="0.18"/>
<path id="Vector_14" d="M77.2894 9.86845C77.1341 9.60591 76.8991 9.61427 76.3577 9.88747C75.0971 10.5425 74.4306 11.5309 74.2178 13.0789C74.1172 13.8179 74.156 14.0996 74.379 14.2283C74.7531 14.4443 74.9596 14.1697 75.0317 13.3471C75.0621 13.0286 75.1791 12.5104 75.295 12.1932C75.4809 11.7051 75.5516 11.5827 75.8995 11.2458C76.1057 11.0383 76.4987 10.7563 76.7518 10.6336C77.2973 10.3532 77.4561 10.1279 77.2894 9.86845Z" fill="black" fill-opacity="0.18"/>
<path id="Vector_15" d="M59.8071 36.112C60.1044 35.381 60.2746 34.1061 60.1155 33.7837C60.0359 33.6225 59.9681 33.5738 59.8156 33.5722C59.5446 33.5598 59.3927 33.8561 59.3273 34.5674C59.2536 35.2931 59.0081 35.9676 58.6503 36.4044C58.4979 36.5853 58.3569 36.7632 58.332 36.8064C58.304 36.8382 58.0289 37.0156 57.7168 37.1907C57.0699 37.547 56.8967 37.7639 57.0789 38.0131C57.257 38.2696 57.5034 38.2582 58.0118 37.9756C58.8592 37.5045 59.5222 36.8214 59.8071 36.112Z" fill="black" fill-opacity="0.18"/>
<path id="Vector_16" d="M74.574 8.79045C74.4951 8.49521 74.1677 8.43102 73.6331 8.59287C72.6092 8.90439 71.9056 9.45848 71.3858 10.3587C70.97 11.079 70.6997 11.9792 70.7938 12.3312C70.8605 12.581 70.8851 12.6048 71.0872 12.587C71.3862 12.5676 71.4796 12.4391 71.6892 11.7438C71.9271 10.9497 72.4359 10.168 72.9447 9.81834C73.1505 9.67787 73.572 9.47948 73.8796 9.3786C74.4524 9.20039 74.6408 9.04026 74.574 8.79045Z" fill="black" fill-opacity="0.18"/>
<path id="Vector_17" d="M71.0608 7.36693C70.9077 7.06728 70.6954 7.06954 69.9993 7.37822C68.8941 7.8637 68.1371 8.80943 67.7853 10.1332C67.569 10.9397 67.57 11.3533 67.793 11.482C68.1742 11.7021 68.3391 11.4996 68.5459 10.5435C68.8284 9.25661 69.4248 8.50617 70.57 8.03426C71.0937 7.80842 71.2109 7.65523 71.0608 7.36693Z" fill="black" fill-opacity="0.18"/>
<path id="Vector_18" d="M67.7151 6.43394C67.6532 6.04286 67.3224 6.03434 66.6486 6.40396C65.4085 7.08999 64.7726 8.12488 64.6091 9.72055C64.5418 10.4019 64.6014 10.6476 64.8834 10.724C65.1942 10.817 65.3726 10.5743 65.401 10.0433C65.4605 9.0598 65.8081 8.17536 66.355 7.62685C66.4896 7.49332 66.8475 7.23899 67.1554 7.07108C67.4562 6.89902 67.7187 6.74331 67.7312 6.72171C67.7437 6.7001 67.733 6.56909 67.7151 6.43394Z" fill="black" fill-opacity="0.18"/>
<path id="Vector_19" d="M55.6944 8.04995C55.6516 6.91133 55.9186 6.06678 56.5184 5.4432C56.7245 5.23571 57.0184 4.99247 57.1683 4.91572C57.6415 4.66081 57.7631 4.25086 57.425 4.05567C57.2236 3.93938 56.9841 4.02196 56.4825 4.37576C55.4627 5.11215 54.9861 6.03733 54.8864 7.43939C54.8583 7.90332 54.8692 8.39938 54.9189 8.5625C54.9959 8.82783 55.0205 8.85164 55.2627 8.84744C55.6234 8.85402 55.7202 8.66981 55.6944 8.04995Z" fill="black" fill-opacity="0.18"/>
<path id="Vector_20" d="M49.1484 7.34359C49.0203 5.95404 49.4583 4.92971 50.4955 4.21297C50.8957 3.93509 50.9992 3.63954 50.7849 3.42936C50.5808 3.23469 50.3662 3.27406 49.9493 3.58075C49.1353 4.17668 48.7005 4.78029 48.4517 5.69297C48.2112 6.59124 48.2698 8.08466 48.5575 8.25079C48.723 8.34631 49.012 8.24433 49.1088 8.06012C49.1587 7.9737 49.1747 7.64687 49.1484 7.34359Z" fill="black" fill-opacity="0.18"/>
<path id="Vector_21" d="M46.1478 7.29155C46.0874 6.99742 46.0541 6.44043 46.0807 6.06208C46.1178 5.44969 46.1556 5.31784 46.4311 4.82394C46.6307 4.47824 46.8765 4.16882 47.0928 3.97683C47.2854 3.8095 47.4657 3.59675 47.4827 3.50092C47.5385 3.25468 47.2697 3.02263 46.9942 3.08445C46.4062 3.20588 45.4398 4.5973 45.2784 5.54125C45.1107 6.52953 45.3028 7.90798 45.6337 8.09903C46.094 8.36483 46.3039 8.03464 46.1478 7.29155Z" fill="black" fill-opacity="0.18"/>
<path id="Vector_22" d="M42.7638 7.35454C42.6829 6.84686 42.7697 5.96552 42.962 5.43314C43.1709 4.87195 43.4685 4.50601 44.1149 4.0342C44.5711 3.6926 44.6588 3.47433 44.4209 3.22178C44.177 2.94651 43.5694 3.26792 42.8172 4.0724C42.5105 4.40427 42.3952 4.58737 42.2063 5.06408C41.8119 6.0463 41.7949 7.80342 42.1761 8.02354C42.5358 8.2312 42.8436 7.88077 42.7638 7.35454Z" fill="black" fill-opacity="0.18"/>
<path id="Vector_23" d="M39.9324 7.27535C39.9068 6.83802 39.9053 6.309 39.9558 6.08852C40.0712 5.47334 40.4867 4.82016 41.0911 4.30487C41.5972 3.87684 41.6055 3.86244 41.5592 3.64364C41.4555 3.14206 41.0079 3.21971 40.3256 3.85328C39.8286 4.31537 39.3194 5.16411 39.1794 5.75547C38.9888 6.56732 39.0932 8.16405 39.345 8.30941C39.4673 8.38001 39.8831 8.2744 39.9497 8.15917C39.9788 8.10875 39.9694 7.70964 39.9324 7.27535Z" fill="black" fill-opacity="0.18"/>
<path id="Vector_24" d="M20.4515 21.2644C20.3189 20.9957 20.1747 20.9797 19.4266 21.1624C19.083 21.2425 18.5468 21.3074 18.2273 21.2958C17.6699 21.2812 17.6225 21.2635 16.9403 20.8504C16.5488 20.6148 16.0937 20.3232 15.918 20.2122C15.6355 20.0203 15.5985 20.0181 15.4214 20.1752C15.2569 20.3107 15.2422 20.3694 15.3165 20.5563C15.5189 21.0861 16.7465 21.9005 17.5928 22.0626C18.2219 22.1857 18.9765 22.1413 19.7741 21.9392C20.4469 21.7707 20.6251 21.595 20.4515 21.2644Z" fill="black" fill-opacity="0.18"/>
</g>
</g>
<defs>
<clipPath id="clip0_151_2927">
<rect width="67.5282" height="106.321" fill="white" transform="translate(125.92 37.8397) rotate(120)"/>
</clipPath>
</defs>
</svg>
