<svg width="88" height="81" viewBox="0 0 88 81" fill="none" xmlns="http://www.w3.org/2000/svg">
<path d="M68.3101 -1.80084C68.1612 -1.77005 67.7211 -1.61609 67.3351 -1.46983C66.6106 -1.18501 66.2044 -1.13113 65.9674 -1.27738C65.8523 -1.34666 65.7914 -1.30817 65.5612 -1.04645C65.0737 -0.492203 64.6809 -0.422928 62.7919 -0.530701C61.783 -0.592278 61.6476 -0.584579 61.4377 -0.461418L61.2075 -0.330551L61.4513 -0.230484C62.3179 0.108223 63.0966 1.47844 62.67 1.90952C62.5143 2.07117 61.9862 2.07887 61.6205 1.92491L61.3565 1.82484L61.4919 1.9865C61.7898 2.3483 61.8101 2.77937 61.5461 3.0334C61.4648 3.11038 61.3971 3.11038 61.1872 3.0334C61.0315 2.97182 60.6388 2.93333 60.1851 2.93333C59.569 2.94103 59.3523 2.97952 58.9528 3.14117C58.4044 3.35672 57.9778 3.61844 57.7002 3.91866C57.47 4.14959 57.4632 4.25736 57.6596 4.28815C57.8966 4.32664 57.8763 4.49599 57.5513 5.11951C57.1924 5.79693 57.0367 6.41276 57.0367 7.12096C57.0367 7.6983 57.1721 8.62204 57.3752 9.39182C57.5039 9.89218 57.5039 9.93837 57.4023 10.0077C56.4002 10.6928 56.1429 11.0315 55.5539 12.4479C55.3304 12.9867 55.0731 13.5179 54.9851 13.6179L54.8158 13.8104L54.9716 13.9258C55.2898 14.1645 55.1882 14.788 54.7143 15.5116C54.2471 16.2121 54.1658 16.5739 54.2132 17.7363C54.2606 19.0988 54.2065 19.4375 53.7325 20.5383C53.719 20.5768 53.7664 20.5691 53.8476 20.5152C54.0914 20.3689 54.4164 20.4459 54.5044 20.6692C54.5518 20.7769 54.6127 21.4005 54.6533 22.0548C54.6872 22.7091 54.7346 23.3095 54.7684 23.3788C54.8294 23.5481 54.7143 23.602 53.6851 23.91C51.6674 24.5104 48.9997 24.6258 46.1695 24.2487C45.1945 24.1101 43.4002 23.8099 41.1862 23.4096C36.0742 22.4782 32.7429 22.4474 29.7367 23.3172C28.5518 23.6559 27.7054 24.0177 26.4664 24.7105C23.7987 26.1962 21.7132 28.2207 17.8606 33.0627C15.0846 36.5575 13.7507 37.9893 12.0783 39.2594C10.7716 40.2525 9.87783 40.7066 8.38824 41.1377C6.3096 41.7458 4.54241 41.461 3.67574 40.391C2.88356 39.4134 2.80908 38.0201 3.47939 36.4805C4.27158 34.633 5.96428 33.1012 8.30022 32.1082C8.65908 31.9542 9.07887 31.831 9.2346 31.831C9.3971 31.831 9.94553 32.0158 10.6158 32.2852C11.9294 32.8317 12.3966 32.9472 13.0263 32.8856C13.8455 32.8087 14.3872 32.3545 15.0101 31.246C15.2742 30.7764 15.6195 30.3684 16.344 29.6833L16.5132 29.5217L16.3237 29.5987C16.2153 29.6371 16.0393 29.6756 15.931 29.6756C15.5586 29.6756 15.694 29.2292 16.3033 28.4748C16.4726 28.2515 16.6148 28.0591 16.6148 28.036C16.6148 28.0129 16.4591 28.0591 16.2763 28.1438C15.782 28.3593 15.1252 28.3285 13.8997 28.0514C12.6065 27.7589 12.0716 27.7666 11.3674 28.0976C10.3924 28.544 9.87783 29.029 9.25491 30.1144C9.03824 30.4839 8.78772 30.8303 8.69293 30.8765C8.59814 30.9304 8.07001 31.1305 7.51481 31.3307C4.00751 32.6085 1.55647 35.0333 0.825223 37.9662C0.601785 38.8823 0.615327 40.2679 0.859077 41.1069C1.25179 42.4617 2.15908 43.5394 3.51324 44.2707C4.51533 44.8019 5.13824 44.9482 6.49241 44.9482C7.71793 44.9558 8.17835 44.8866 9.43772 44.5325C12.3018 43.7165 15.5518 41.8151 19.3096 38.7437C20.481 37.7892 20.5825 37.8276 20.1153 39.0747C19.506 40.7066 18.9101 43.0468 18.6461 44.8635C18.4497 46.2029 18.4158 47.2036 18.5106 48.3891C18.6596 50.2597 18.4632 51.2681 17.5966 53.0771C17.0414 54.2394 16.8721 54.7783 16.7231 55.8483C16.5132 57.3417 16.2492 57.9575 15.5856 58.5348C14.9153 59.1122 14.7054 59.3431 14.5497 59.6972C14.3669 60.1129 14.1096 61.5293 13.9065 63.2767C13.6898 65.155 13.5679 65.7554 13.0601 67.5105C12.8096 68.3573 12.7487 68.7961 12.5862 70.7436C12.356 73.6226 12.1054 75.0005 11.5638 76.3707C11.1846 77.3407 11.1846 77.4561 11.6315 78.5338C11.9429 79.3036 12.1054 79.981 12.1799 80.8663C12.2544 81.7053 12.8502 82.76 13.4596 83.1141C14.3195 83.6144 15.1049 83.5913 15.6669 83.0448L15.931 82.783L16.7299 82.7984C17.6643 82.8138 17.8945 82.7292 18.3752 82.2211C18.6122 81.9671 18.8018 81.8439 19.1132 81.7438C19.594 81.5976 19.7294 81.4282 19.7294 80.9971C19.7294 80.5661 19.4179 79.5807 19.1471 79.1651C18.8627 78.7186 18.5106 78.5184 17.8403 78.4107C16.6419 78.2259 15.8294 77.2945 15.8497 76.1321C15.87 75.4239 16.1138 74.5387 17.2242 71.244C17.6778 69.8969 17.9825 68.6729 18.1721 67.4797C18.2533 66.9563 18.3752 66.3405 18.4497 66.1172C18.6325 65.563 19.0523 65.1088 19.7429 64.7008C22.3158 63.1843 24.706 61.1752 26.1007 59.3662C26.8726 58.3655 27.3737 57.4802 28.0643 55.9022C28.931 53.9392 29.4523 53.0617 29.9195 52.8153C30.2987 52.6075 30.4408 52.7538 30.6304 53.5543C30.9216 54.7706 30.8809 56.1793 30.5153 57.5033C30.1362 58.8812 29.2018 60.6825 28.0101 62.3376C27.0148 63.7309 26.9403 63.9079 27.0487 64.5853C27.1367 65.1165 27.2653 65.3705 27.8273 66.1326C29.9872 69.0116 31.294 71.7366 32.6075 76.0936C32.7565 76.5786 32.9393 77.0635 33.0205 77.1636C33.1018 77.2637 33.3929 77.4638 33.6638 77.6178C34.07 77.841 34.1851 77.9411 34.3002 78.1951C34.6794 79.0419 35.6747 79.7809 36.67 79.9579C37.1101 80.0349 37.2794 80.0272 37.7669 79.9194C38.2341 79.8117 38.5591 79.7963 39.3783 79.8348L40.4143 79.881L40.6513 79.6808C40.7799 79.573 40.9559 79.4268 41.044 79.3575C41.132 79.2805 41.4096 79.2035 41.7143 79.1728C42.1341 79.1266 42.2627 79.0804 42.3575 78.9418C42.5268 78.7032 42.5809 78.2875 42.4862 77.9257C42.3575 77.4638 41.87 76.594 41.5721 76.3323C41.3148 76.0936 41.3013 76.0936 40.5226 76.0936C40.0893 76.0936 39.5273 76.0397 39.2632 75.9782C38.5523 75.8088 37.7466 75.3238 37.1914 74.7311C36.1351 73.5918 35.5461 72.391 34.5372 69.3195C34.2934 68.5805 33.982 67.6568 33.8466 67.2796C33.569 66.5098 33.5216 66.0248 33.6976 65.6553C33.7586 65.5245 34.3002 64.901 34.9028 64.2697C38.2612 60.7518 39.8794 58.0653 40.5565 54.8861C40.7596 53.9469 41.0237 53.5389 41.4299 53.5389C41.5247 53.5389 41.9445 53.6929 42.3643 53.8776C44.1992 54.7013 45.9596 55.0939 48.6273 55.2787L49.3856 55.3325V55.5712C49.3856 56.3564 49.7377 57.1954 50.7737 58.8505C51.9247 60.6902 52.2294 61.4908 52.2294 62.6301V63.2382L52.6559 62.9688C53.0825 62.6994 53.3127 62.6301 53.3127 62.7687C53.3127 62.8841 53.8544 63.1458 54.3622 63.2767C54.8023 63.3922 54.8632 63.4384 55.344 63.9618C55.8856 64.5623 56.4612 65.0241 57.5445 65.74C59.1086 66.7715 59.9278 67.5336 60.4153 68.3958C60.869 69.1887 60.8757 69.2425 60.5914 69.6736C60.07 70.4742 60.1716 70.4203 59.3862 70.3587C58.8716 70.3202 58.5669 70.3356 58.1877 70.428C57.5377 70.582 57.4768 70.582 57.1179 70.3895C56.8742 70.251 56.7388 70.2279 56.3393 70.2587C55.7705 70.3048 55.5539 70.4126 55.0596 70.9284C54.396 71.6212 54.1523 72.3987 54.3554 73.1915C54.5721 74.0383 55.0596 74.4001 56.2174 74.5848C56.8674 74.6926 56.9487 74.7234 57.4362 75.0852C58.2487 75.6933 58.6075 75.8165 59.6096 75.8088C60.3205 75.8088 60.5981 75.7703 61.3362 75.5702C61.8237 75.4393 62.494 75.3161 62.8257 75.293C64.5388 75.1853 66.0013 74.0845 66.5903 72.4602C66.7528 72.0061 66.7799 71.9753 66.9966 71.9522C67.3013 71.9214 67.3893 72.0369 67.6872 72.822C67.8158 73.1607 68.1408 74.0075 68.4117 74.7003C68.994 76.2245 69.2309 76.9481 69.495 78.0412C69.7929 79.2343 69.9351 79.5192 70.646 80.2659C71.3164 80.9664 71.7226 81.5822 71.8919 82.1595C72.1559 83.0679 73.0835 83.5759 74.6408 83.6837C75.3992 83.7376 75.9612 83.6606 76.6518 83.4143C76.9836 83.2988 77.1325 83.2834 77.62 83.345C78.8117 83.4912 79.4684 83.2834 79.9221 82.6214C80.0643 82.4212 80.2065 82.1826 80.2268 82.0979C80.2606 81.9671 80.3283 81.944 80.6601 81.944C80.9783 81.944 81.0731 81.9132 81.195 81.7669C81.4252 81.4898 81.4455 81.1742 81.2763 80.7893C81.0934 80.3736 80.0101 79.1035 79.5835 78.7879C79.2112 78.5184 78.92 78.4953 77.857 78.6724C77.0242 78.811 76.3742 78.811 76.0559 78.6801C75.6497 78.5184 74.5664 77.6101 74.0992 77.0405C73.2325 75.9935 73.0361 75.2238 72.9481 72.5141C72.833 69.0809 72.5216 66.7869 71.7632 63.8617C71.594 63.2074 71.4585 62.5916 71.4585 62.4915C71.4585 62.3915 71.6684 61.8141 71.9257 61.206C73.3612 57.8574 74.1601 54.7706 74.4648 51.3989C74.5799 50.1904 74.6408 49.9748 75.2299 48.8356C75.7987 47.7348 75.9612 47.142 76.0559 45.8642C76.083 45.4331 76.1507 45.0251 76.1914 44.9636C76.2388 44.902 76.3877 44.8096 76.5231 44.7557C76.6585 44.7095 76.8752 44.6017 77.0039 44.5248L77.2273 44.3708L77.4643 44.6864C77.5929 44.8558 77.7216 44.9943 77.7486 44.9943C77.7825 44.9943 77.8231 44.7403 77.8367 44.4401C77.8841 43.678 78.0737 43.2777 78.8997 42.2231C79.6445 41.2686 79.9356 40.6912 80.0643 39.9061L80.1455 39.398L80.5992 39.1517C81.6013 38.5974 82.5559 37.4351 83.1924 35.9802C83.4836 35.3259 83.646 35.0641 84.032 34.633C84.8445 33.7247 85.183 32.6932 85.4742 30.253C85.7044 28.3054 85.8059 27.9205 86.1851 27.5202C86.3408 27.3586 86.4289 27.3278 86.8013 27.3278C87.0382 27.3278 87.2346 27.3047 87.2346 27.2816C87.2346 27.1584 86.6726 26.6273 86.2867 26.3887C85.6096 25.9653 85.4742 25.7882 85.4742 25.3571C85.4742 25.1493 85.5216 24.7875 85.5757 24.5412C85.9481 22.9554 86.1039 20.954 85.9549 19.653C85.7856 18.2366 85.5893 17.5515 84.8309 15.7425C84.5195 15.0035 84.2486 14.2877 84.2216 14.1568C84.1809 13.8951 84.2554 13.6025 84.4179 13.4178C84.5059 13.31 84.4721 13.2946 84.0726 13.2484C83.5716 13.1869 83.2872 13.0483 83.145 12.7943C83.0841 12.7019 83.0096 12.2554 82.969 11.7782C82.6914 8.51427 81.8924 6.45895 80.396 5.16571C79.9289 4.75772 79.4684 4.4652 78.5679 3.99563C77.5591 3.47218 77.0919 3.14887 76.6992 2.67931L76.3471 2.27132L76.2388 2.46376C76.083 2.73318 75.758 2.91023 75.5143 2.84866C75.2096 2.77168 74.8981 2.356 74.1398 1.03967C73.3679 -0.292061 72.7992 -1.03106 72.2643 -1.40055C71.6888 -1.78545 71.682 -1.78544 71.682 -1.42365C71.682 -1.2312 71.6346 -1.05415 71.5601 -0.961777C71.4382 -0.807816 71.4382 -0.807816 71.2283 -0.961777C70.2059 -1.73156 69.2106 -2.01638 68.3101 -1.80084ZM63.9429 53.4774C63.9429 53.8084 63.6179 54.4242 63.0695 55.1478C62.494 55.9099 62.2976 56.2871 62.1961 56.8259L62.1283 57.1569L62.3315 56.9645C62.5143 56.7874 62.7919 56.7028 62.7919 56.8182C62.7919 56.8413 62.7445 57.08 62.6836 57.3417C62.6091 57.665 62.5888 57.9806 62.6091 58.3347C62.6565 58.9659 62.6429 58.9582 62.0945 58.0961C61.6612 57.411 61.1466 56.3487 61.0315 55.8791C60.9502 55.5789 60.9638 55.525 61.1398 55.1555C61.4377 54.5397 61.8575 54.2241 63.2658 53.5851C63.97 53.2695 63.9429 53.2695 63.9429 53.4774Z" fill="black" fill-opacity="0.18"/>
</svg>
