<svg width="96" height="81" viewBox="0 0 96 81" fill="none" xmlns="http://www.w3.org/2000/svg">
<path id="Vector" d="M45.015 -4.13536C40.5075 -3.43244 40.0371 -3.34724 39.8746 -3.19813C39.5324 -2.87152 26.275 11.0166 26.1381 11.1941C26.0098 11.3574 26.0355 11.6769 26.5829 15.9512C27.4981 23.0657 27.9086 26.2111 28.5074 30.9327C28.8153 33.3326 29.26 36.7833 29.491 38.601C29.7219 40.4187 30.2266 44.3309 30.6029 47.2988C30.9792 50.2667 31.424 53.7174 31.5865 54.96C31.749 56.2096 31.8688 57.2392 31.8602 57.2463C31.8431 57.2605 31.6036 57.0972 31.3128 56.8841L30.7911 56.4936L30.218 56.6711C29.9015 56.7705 29.6193 56.8415 29.6022 56.8202C29.5594 56.7918 29.2002 54.5908 27.1645 42.0091L26.2835 36.5774L22.8195 34.3551C19.6976 32.3528 19.1074 32.012 16.8665 30.8617C15.4894 30.1588 14.2748 29.5482 14.1465 29.5056C13.9413 29.4275 13.8643 29.4559 13.2228 29.8109C12.8294 30.0239 11.2385 30.8901 9.67322 31.7422C8.11654 32.5942 6.81645 33.3255 6.79935 33.3752C6.77369 33.4178 5.33675 35.2781 3.609 37.5005C1.55624 40.1418 0.461426 41.6115 0.461426 41.7251C0.461426 41.8245 2.16351 45.403 4.25049 49.6774C8.03956 57.4522 10.0923 61.6768 14.1123 69.9486C17.2 76.3033 17.1744 76.2536 17.3283 76.3885C17.4053 76.4524 19.3383 77.482 21.6135 78.6819C24.2735 80.0735 25.8217 80.8475 25.9329 80.8333C26.0526 80.8191 26.5487 80.2937 27.5237 79.1292C28.3021 78.2062 28.9607 77.4678 28.9863 77.4962C29.012 77.5246 29.9529 79.257 31.0733 81.3445C32.1938 83.432 33.1517 85.1786 33.2031 85.2212C33.3314 85.3348 36.8553 85.9881 36.9323 85.9099C36.975 85.8815 37.4112 84.781 37.9073 83.4746L38.8054 81.096L38.7199 80.2227C38.6686 79.7398 38.6429 79.2996 38.66 79.2499C38.6771 79.1789 39.3956 79.3919 41.2089 79.9954C42.5945 80.4641 43.809 80.8475 43.9031 80.8475C44.0058 80.8475 44.1255 80.812 44.1768 80.7694C44.3222 80.6487 46.6401 79.7185 46.6658 79.7753C46.6744 79.7966 47.3928 80.8049 48.2567 82.019C49.3173 83.503 49.8818 84.2272 49.993 84.2414C50.1213 84.2556 56.3737 82.3385 56.4763 82.2533C56.4934 82.2462 56.8527 81.4936 57.2889 80.599C57.7251 79.6972 58.0843 78.9588 58.0929 78.9517C58.1014 78.9375 58.5462 79.3209 59.085 79.8037C60.8812 81.4084 61.403 81.8415 61.5484 81.8415C61.6339 81.8415 63.8663 80.4144 66.5263 78.6606L71.3503 75.4868L75.1052 70.1261C77.1665 67.1795 82.6149 59.4047 87.1994 52.8512L95.5388 40.937L95.0256 38.8637C94.7348 37.7206 94.0762 35.0935 93.5544 33.0273C93.0327 30.954 92.4511 28.6394 92.2629 27.8796C92.0662 27.1199 91.878 26.4454 91.8352 26.3744C91.7412 26.2253 92.0747 26.3034 87.9949 25.5366C86.0875 25.1816 84.2229 24.8265 83.8466 24.7484C83.4702 24.6774 83.0597 24.6135 82.9399 24.6135C82.7603 24.6135 80.8786 26.0549 73.6169 31.7138C68.6133 35.6189 64.4479 38.885 64.3709 38.9773C64.2683 39.0909 63.7808 41.2494 62.6774 46.4468C61.8221 50.4655 61.1122 53.7671 61.095 53.7813C61.0779 53.7955 60.291 53.7813 59.3502 53.7529C57.7679 53.7103 57.631 53.6961 57.631 53.5754C57.631 53.4405 57.7251 52.7589 58.7429 45.7723C59.8035 38.4519 62.3951 21.1699 63.7038 12.7206C63.986 10.8817 64.2597 9.05689 64.3196 8.65928L64.4137 7.94215L63.9946 7.55164C63.7636 7.33863 60.5904 4.44173 56.9467 1.11882C52.1227 -3.28333 50.2753 -4.92348 50.147 -4.91639C50.0529 -4.90929 47.7435 -4.56138 45.015 -4.13536Z" fill="black" fill-opacity="0.18"/>
</svg>
