<svg width="176" height="209" viewBox="0 0 176 209" fill="none" xmlns="http://www.w3.org/2000/svg">
<g id="Vector">
<path d="M88 185.337C70.1478 185.337 54.9465 179.162 42.3963 166.814C29.846 154.465 23.5709 139.431 23.5709 121.713C23.5709 113.257 25.2152 105.17 28.5038 97.4516C31.7923 89.7336 36.4567 82.9215 42.497 77.0155L88 32.3179L133.503 77.0155C139.543 82.9215 144.208 89.7336 147.496 97.4516C150.785 105.17 152.429 113.257 152.429 121.713C152.429 139.431 146.154 154.465 133.604 166.814C121.053 179.162 105.852 185.337 88 185.337Z" fill="#039300"/>
<path d="M96.0588 24.1139L88 16.1977L79.9412 24.1139L34.4571 68.793C34.4537 68.7963 34.4503 68.7996 34.4469 68.8029C27.3364 75.758 21.8088 83.8267 17.9241 92.9438C14.0233 102.099 12.0709 111.72 12.0709 121.713C12.0709 142.491 19.5677 160.485 34.3306 175.011C49.0652 189.509 67.1771 196.837 88 196.837C108.823 196.837 126.935 189.509 141.669 175.011C156.432 160.485 163.929 142.491 163.929 121.713C163.929 111.72 161.977 102.099 158.076 92.9438C154.191 83.8261 148.663 75.757 141.552 68.8016C141.549 68.7987 141.546 68.7958 141.543 68.793L96.0588 24.1139Z" stroke="#039300" stroke-opacity="0.04" stroke-width="23"/>
</g>
</svg>
