<svg width="24" height="25" viewBox="0 0 24 25" fill="none" xmlns="http://www.w3.org/2000/svg">
<g id="Input Icon">
<path id="Vector" d="M4.3077 19.8369C3.80257 19.8369 3.375 19.6619 3.025 19.3119C2.675 18.9619 2.5 18.5343 2.5 18.0292V6.64462C2.5 6.13948 2.675 5.71191 3.025 5.36191C3.375 5.01191 3.80257 4.83691 4.3077 4.83691H19.6923C20.1974 4.83691 20.625 5.01191 20.975 5.36191C21.325 5.71191 21.5 6.13948 21.5 6.64462V18.0292C21.5 18.5343 21.325 18.9619 20.975 19.3119C20.625 19.6619 20.1974 19.8369 19.6923 19.8369H4.3077ZM12 12.7292C12.0833 12.7292 12.166 12.7167 12.2481 12.6917C12.3301 12.6667 12.4096 12.6324 12.4865 12.5888L19.6385 8.00992C19.7526 7.93942 19.8333 7.84807 19.8808 7.73589C19.9282 7.62371 19.9423 7.50544 19.9231 7.38109C19.9102 7.15032 19.7974 6.97886 19.5846 6.86669C19.3718 6.75451 19.157 6.76444 18.9404 6.89649L12 11.3369L5.05958 6.89649C4.84291 6.76444 4.62978 6.75386 4.42018 6.86476C4.21056 6.97565 4.09613 7.14455 4.0769 7.37146C4.05767 7.50608 4.07177 7.63108 4.1192 7.74646C4.16663 7.86185 4.2474 7.94967 4.3615 8.00992L11.5135 12.5888C11.5904 12.6324 11.6699 12.6667 11.7519 12.6917C11.834 12.7167 11.9166 12.7292 12 12.7292Z" fill="#696969"/>
</g>
</svg>
