<svg width="586" height="142" viewBox="0 0 586 142" fill="none" xmlns="http://www.w3.org/2000/svg">
<path d="M58.6168 83.6793C51.7536 76.8161 48.2833 68.5984 48.2059 59.026C48.1285 49.4537 51.4956 41.2617 58.3072 34.4502C61.5582 31.1992 65.2994 28.7222 69.5308 27.0194C73.7622 25.3165 78.1743 24.4908 82.7669 24.5424L117.444 24.852L117.754 59.5292C117.805 64.1218 116.98 68.5339 115.277 72.7653C113.574 76.9967 111.097 80.7379 107.846 83.9889C101.034 90.8005 92.8424 94.1676 83.2701 94.0902C73.6977 94.0128 65.48 90.5425 58.6168 83.6793Z" fill="#039300"/>
<path d="M83.9754 58.3207C90.8386 65.1839 94.3089 73.4016 94.3863 82.974C94.4637 92.5463 91.0966 100.738 84.285 107.55C81.034 110.801 77.2928 113.278 73.0614 114.981C68.83 116.684 64.4179 117.509 59.8253 117.458L25.1481 117.148L24.8385 82.4708C24.7869 77.8782 25.6126 73.4661 27.3155 69.2347C29.0183 65.0033 31.4953 61.262 34.7463 58.0111C41.5578 51.1995 49.7498 47.8324 59.3221 47.9098C68.8945 47.9872 77.1122 51.4575 83.9754 58.3207Z" fill="#04B4DB"/>
<path fill-rule="evenodd" clip-rule="evenodd" d="M48.2059 59.026C48.2833 68.5984 51.7536 76.8161 58.6168 83.6793C65.48 90.5425 73.6977 94.0128 83.2701 94.0902C86.7333 94.1182 90.0158 93.6953 93.1177 92.8216C93.9914 89.7197 94.4143 86.4372 94.3863 82.974C94.3089 73.4016 90.8386 65.1839 83.9754 58.3207C77.1122 51.4575 68.8945 47.9872 59.3222 47.9098C55.8589 47.8818 52.5764 48.3047 49.4745 49.1784C48.6008 52.2803 48.1779 55.5628 48.2059 59.026Z" fill="#94E5F7"/>
<path d="M165.491 110.366V36.8661H196.781C201.611 36.8661 205.671 37.5661 208.961 38.9661C212.321 40.3661 214.841 42.4661 216.521 45.2661C218.271 47.9961 219.146 51.3211 219.146 55.2411C219.146 59.3011 218.061 62.7311 215.891 65.5311C213.721 68.3311 210.676 70.2561 206.756 71.3061L206.651 69.2061C209.941 69.9061 212.811 71.1661 215.261 72.9861C217.711 74.7361 219.601 76.9411 220.931 79.6011C222.331 82.1911 223.031 85.1661 223.031 88.5261C223.031 92.0961 222.436 95.2461 221.246 97.9761C220.126 100.706 218.446 102.981 216.206 104.801C213.966 106.621 211.306 108.021 208.226 109.001C205.146 109.911 201.681 110.366 197.831 110.366H165.491ZM178.826 98.0811H197.201C199.791 98.0811 201.961 97.6961 203.711 96.9261C205.531 96.1561 206.896 95.0361 207.806 93.5661C208.786 92.0261 209.276 90.2061 209.276 88.1061C209.276 86.1461 208.751 84.4661 207.701 83.0661C206.721 81.6661 205.286 80.6161 203.396 79.9161C201.506 79.1461 199.266 78.7611 196.676 78.7611H178.826V98.0811ZM178.826 67.0011H195.521C197.551 67.0011 199.301 66.6161 200.771 65.8461C202.311 65.0761 203.501 64.0261 204.341 62.6961C205.181 61.3661 205.601 59.8261 205.601 58.0761C205.601 55.2761 204.656 53.1061 202.766 51.5661C200.876 49.9561 198.111 49.1511 194.471 49.1511H178.826V67.0011ZM236.941 110.366V55.0311H249.856V110.366H236.941ZM243.241 43.2711C240.651 43.2711 238.621 42.6411 237.151 41.3811C235.751 40.0511 235.051 38.1961 235.051 35.8161C235.051 33.5761 235.786 31.7561 237.256 30.3561C238.726 28.9561 240.721 28.2561 243.241 28.2561C245.901 28.2561 247.931 28.9211 249.331 30.2511C250.801 31.5111 251.536 33.3661 251.536 35.8161C251.536 37.9861 250.801 39.7711 249.331 41.1711C247.861 42.5711 245.831 43.2711 243.241 43.2711ZM291.538 111.416C286.008 111.416 281.073 110.191 276.733 107.741C272.393 105.221 268.963 101.791 266.443 97.4511C263.923 93.1111 262.663 88.1761 262.663 82.6461C262.663 77.1161 263.923 72.1811 266.443 67.8411C268.963 63.5011 272.393 60.1061 276.733 57.6561C281.073 55.1361 286.008 53.8761 291.538 53.8761C296.998 53.8761 301.898 55.1361 306.238 57.6561C310.578 60.1061 313.973 63.5011 316.423 67.8411C318.943 72.1811 320.203 77.1161 320.203 82.6461C320.203 88.1761 318.943 93.1111 316.423 97.4511C313.973 101.791 310.578 105.221 306.238 107.741C301.898 110.191 296.998 111.416 291.538 111.416ZM291.538 99.9711C294.548 99.9711 297.208 99.2011 299.518 97.6611C301.898 96.1211 303.753 94.0561 305.083 91.4661C306.483 88.8761 307.148 85.9361 307.078 82.6461C307.148 79.2861 306.483 76.3111 305.083 73.7211C303.753 71.1311 301.898 69.1011 299.518 67.6311C297.208 66.0911 294.548 65.3211 291.538 65.3211C288.528 65.3211 285.798 66.0911 283.348 67.6311C280.968 69.1011 279.113 71.1661 277.783 73.8261C276.453 76.4161 275.788 79.3561 275.788 82.6461C275.788 85.9361 276.453 88.8761 277.783 91.4661C279.113 94.0561 280.968 96.1211 283.348 97.6611C285.798 99.2011 288.528 99.9711 291.538 99.9711ZM350.235 111.416C345.335 111.416 340.925 110.611 337.005 109.001C333.155 107.321 330.005 104.941 327.555 101.861L335.955 94.6161C338.055 96.9961 340.4 98.7111 342.99 99.7611C345.58 100.811 348.31 101.336 351.18 101.336C352.37 101.336 353.42 101.196 354.33 100.916C355.31 100.636 356.15 100.216 356.85 99.6561C357.55 99.0961 358.075 98.4661 358.425 97.7661C358.845 96.9961 359.055 96.1561 359.055 95.2461C359.055 93.5661 358.425 92.2361 357.165 91.2561C356.465 90.7661 355.345 90.2411 353.805 89.6811C352.335 89.1211 350.41 88.5611 348.03 88.0011C344.25 87.0211 341.1 85.9011 338.58 84.6411C336.06 83.3111 334.1 81.8411 332.7 80.2311C331.51 78.9011 330.6 77.3961 329.97 75.7161C329.41 74.0361 329.13 72.2161 329.13 70.2561C329.13 67.8061 329.655 65.6011 330.705 63.6411C331.825 61.6111 333.33 59.8611 335.22 58.3911C337.11 56.9211 339.315 55.8011 341.835 55.0311C344.355 54.2611 346.98 53.8761 349.71 53.8761C352.51 53.8761 355.205 54.2261 357.795 54.9261C360.455 55.6261 362.905 56.6411 365.145 57.9711C367.455 59.2311 369.415 60.7711 371.025 62.5911L363.885 70.4661C362.555 69.2061 361.085 68.0861 359.475 67.1061C357.935 66.1261 356.36 65.3561 354.75 64.7961C353.14 64.1661 351.635 63.8511 350.235 63.8511C348.905 63.8511 347.715 63.9911 346.665 64.2711C345.615 64.4811 344.74 64.8311 344.04 65.3211C343.34 65.8111 342.78 66.4411 342.36 67.2111C342.01 67.9111 341.835 68.7511 341.835 69.7311C341.905 70.5711 342.115 71.3761 342.465 72.1461C342.885 72.8461 343.445 73.4411 344.145 73.9311C344.915 74.4211 346.07 74.9811 347.61 75.6111C349.15 76.2411 351.145 76.8361 353.595 77.3961C357.025 78.3061 359.895 79.3211 362.205 80.4411C364.515 81.5611 366.335 82.8561 367.665 84.3261C368.995 85.5861 369.94 87.0561 370.5 88.7361C371.06 90.4161 371.34 92.2711 371.34 94.3011C371.34 97.5911 370.395 100.531 368.505 103.121C366.685 105.711 364.165 107.741 360.945 109.211C357.795 110.681 354.225 111.416 350.235 111.416ZM387.757 110.366V50.0961C387.757 46.7361 388.492 43.7611 389.962 41.1711C391.432 38.5111 393.462 36.4461 396.052 34.9761C398.642 33.4361 401.652 32.6661 405.082 32.6661C407.462 32.6661 409.667 33.0861 411.697 33.9261C413.727 34.6961 415.442 35.7811 416.842 37.1811L412.852 46.9461C411.942 46.1761 410.962 45.5811 409.912 45.1611C408.932 44.7411 407.987 44.5311 407.077 44.5311C405.677 44.5311 404.487 44.7761 403.507 45.2661C402.597 45.6861 401.897 46.3511 401.407 47.2611C400.987 48.1711 400.777 49.2561 400.777 50.5161V110.366H394.267C393.007 110.366 391.817 110.366 390.697 110.366C389.647 110.366 388.667 110.366 387.757 110.366ZM379.147 67.5261V56.1861H413.272V67.5261H379.147ZM447.822 111.416C442.012 111.416 436.867 110.191 432.387 107.741C427.977 105.291 424.512 101.966 421.992 97.7661C419.542 93.4961 418.317 88.6311 418.317 83.1711C418.317 78.8311 419.017 74.8761 420.417 71.3061C421.817 67.7361 423.742 64.6561 426.192 62.0661C428.712 59.4061 431.687 57.3761 435.117 55.9761C438.617 54.5061 442.432 53.7711 446.562 53.7711C450.202 53.7711 453.597 54.4711 456.747 55.8711C459.897 57.2711 462.627 59.1961 464.937 61.6461C467.247 64.0261 468.997 66.8961 470.187 70.2561C471.447 73.5461 472.042 77.1511 471.972 81.0711L471.867 85.5861H427.032L424.617 76.7661H461.052L459.372 78.5511V76.2411C459.162 74.0711 458.462 72.1811 457.272 70.5711C456.082 68.8911 454.542 67.5961 452.652 66.6861C450.832 65.7061 448.802 65.2161 446.562 65.2161C443.132 65.2161 440.227 65.8811 437.847 67.2111C435.537 68.5411 433.787 70.4661 432.597 72.9861C431.407 75.4361 430.812 78.5161 430.812 82.2261C430.812 85.7961 431.547 88.9111 433.017 91.5711C434.557 94.2311 436.692 96.2961 439.422 97.7661C442.222 99.1661 445.477 99.8661 449.187 99.8661C451.777 99.8661 454.157 99.4461 456.327 98.6061C458.497 97.7661 460.842 96.2611 463.362 94.0911L469.767 103.016C467.877 104.766 465.707 106.271 463.257 107.531C460.877 108.721 458.357 109.666 455.697 110.366C453.037 111.066 450.412 111.416 447.822 111.416ZM483.411 110.366V55.0311H496.116L496.326 72.6711L494.541 68.6811C495.311 65.8811 496.641 63.3611 498.531 61.1211C500.421 58.8811 502.591 57.1311 505.041 55.8711C507.561 54.5411 510.186 53.8761 512.916 53.8761C514.106 53.8761 515.226 53.9811 516.276 54.1911C517.396 54.4011 518.306 54.6461 519.006 54.9261L515.541 69.1011C514.771 68.6811 513.826 68.3311 512.706 68.0511C511.586 67.7711 510.466 67.6311 509.346 67.6311C507.596 67.6311 505.916 67.9811 504.306 68.6811C502.766 69.3111 501.401 70.2211 500.211 71.4111C499.021 72.6011 498.076 74.0011 497.376 75.6111C496.746 77.1511 496.431 78.9011 496.431 80.8611V110.366H483.411ZM546.142 111.416C541.592 111.416 537.462 110.156 533.752 107.636C530.042 105.116 527.067 101.686 524.827 97.3461C522.587 93.0061 521.467 88.0711 521.467 82.5411C521.467 77.0111 522.587 72.0761 524.827 67.7361C527.067 63.3961 530.112 60.0011 533.962 57.5511C537.812 55.1011 542.152 53.8761 546.982 53.8761C549.782 53.8761 552.337 54.2961 554.647 55.1361C556.957 55.9061 558.987 57.0261 560.737 58.4961C562.487 59.9661 563.922 61.6461 565.042 63.5361C566.232 65.4261 567.037 67.4561 567.457 69.6261L564.622 68.8911V55.0311H577.642V110.366H564.517V97.1361L567.562 96.6111C567.072 98.5011 566.162 100.356 564.832 102.176C563.572 103.926 561.962 105.501 560.002 106.901C558.112 108.231 555.977 109.316 553.597 110.156C551.287 110.996 548.802 111.416 546.142 111.416ZM549.712 99.9711C552.722 99.9711 555.382 99.2361 557.692 97.7661C560.002 96.2961 561.787 94.2661 563.047 91.6761C564.377 89.0161 565.042 85.9711 565.042 82.5411C565.042 79.1811 564.377 76.2061 563.047 73.6161C561.787 71.0261 560.002 68.9961 557.692 67.5261C555.382 66.0561 552.722 65.3211 549.712 65.3211C546.702 65.3211 544.042 66.0561 541.732 67.5261C539.492 68.9961 537.742 71.0261 536.482 73.6161C535.222 76.2061 534.592 79.1811 534.592 82.5411C534.592 85.9711 535.222 89.0161 536.482 91.6761C537.742 94.2661 539.492 96.2961 541.732 97.7661C544.042 99.2361 546.702 99.9711 549.712 99.9711Z" fill="black"/>
</svg>
