<svg width="572" height="597" viewBox="0 0 572 597" fill="none" xmlns="http://www.w3.org/2000/svg">
<path d="M344.902 1.52203C336.502 2.98871 324.635 6.45538 315.835 9.7887C301.035 15.522 276.902 28.4554 271.302 33.522C263.302 40.9887 257.435 52.722 254.369 67.2554C251.969 79.2554 250.902 102.855 252.635 109.255C253.435 112.055 254.102 111.522 259.169 103.922C274.235 81.3887 292.502 68.4553 326.502 55.7887C347.035 48.1887 350.102 48.722 330.502 56.4553C307.569 65.522 297.302 71.2554 286.235 81.522C268.635 97.522 257.169 114.855 257.169 125.122C257.169 132.455 258.769 133.122 271.035 130.989C291.702 127.522 301.035 122.722 328.502 101.389C335.169 96.322 344.502 90.0554 349.302 87.522C358.235 82.8553 358.235 82.8553 375.302 82.9886C384.769 83.122 396.102 83.6553 400.502 84.1887C407.302 84.9887 405.969 85.122 391.702 85.3887C360.902 85.6553 352.502 88.9887 323.969 111.522C314.502 119.122 303.035 127.789 298.635 130.855C288.769 137.522 271.835 145.522 267.302 145.522C265.435 145.522 263.835 146.055 263.835 146.589C263.835 148.455 274.369 172.189 280.102 183.255C284.235 190.989 286.369 193.789 288.902 194.455C292.635 195.389 305.702 193.789 329.169 189.389C342.635 186.989 347.302 186.722 367.835 187.522C405.969 188.989 412.769 190.455 382.502 190.722C368.235 190.722 349.035 191.789 339.835 192.855C325.035 194.589 303.169 199.255 294.902 202.455C292.102 203.522 292.635 204.855 311.035 246.855L329.969 290.189H362.635C392.369 290.189 396.235 290.455 407.569 293.255C414.369 294.989 419.702 296.722 419.435 296.989C419.169 297.389 413.035 296.855 405.835 296.055C382.502 293.255 341.835 296.322 336.902 301.255C335.835 302.322 389.835 413.655 392.102 414.989C392.902 415.522 395.969 416.322 399.035 416.722C409.569 418.322 429.835 425.389 437.835 430.189C447.169 435.789 457.702 443.789 465.569 451.122L471.169 456.455L462.502 450.322C449.169 440.855 434.369 432.055 428.502 429.922C425.569 428.855 417.569 427.655 410.635 427.255C400.102 426.589 398.235 426.722 398.769 428.322C400.902 433.655 440.502 524.055 442.102 527.522C443.302 529.655 443.569 530.855 442.769 530.189C442.102 529.389 423.302 495.789 401.169 455.522C378.902 415.122 359.702 380.455 358.502 378.322L356.102 374.455L348.502 386.322C324.235 423.922 311.569 447.255 309.435 458.455C305.169 480.455 305.169 480.322 305.835 465.922C306.102 458.455 307.302 448.722 308.502 444.189C312.502 428.722 325.702 402.055 343.302 374.055C347.969 366.589 351.835 359.655 351.835 358.855C351.835 356.989 301.169 260.189 300.235 260.189C299.302 260.189 278.369 282.455 267.835 294.855C256.502 307.922 238.902 331.522 230.502 344.855C227.169 349.922 215.435 372.189 204.235 394.189C193.035 416.189 183.969 433.789 183.835 433.389C183.702 430.055 208.369 369.655 215.569 355.655C231.169 325.655 254.769 291.655 281.302 260.989L294.369 245.789L283.569 223.389C277.702 210.989 270.635 195.922 267.702 189.789L262.635 178.722L256.102 182.055C245.702 187.255 223.302 202.855 206.369 216.455C163.169 250.989 130.235 284.722 111.969 312.855C104.902 323.655 108.635 315.389 117.435 300.722C141.569 260.189 162.369 238.722 219.169 196.189C249.035 173.789 254.502 168.722 254.502 163.255C254.502 159.789 244.369 136.722 241.035 132.722C240.102 131.522 235.435 132.989 224.102 137.789C215.569 141.389 192.902 150.722 173.969 158.322C154.902 166.055 136.369 173.922 132.635 175.789C118.235 183.122 78.2354 209.255 64.2354 220.455C63.3021 221.255 62.5021 221.522 62.5021 221.122C62.5021 219.922 92.5021 195.389 108.502 183.522C135.435 163.522 156.235 152.722 207.569 132.055C222.769 125.922 231.169 121.922 230.102 121.255C226.102 119.122 205.035 113.655 191.969 111.522C175.302 108.722 157.035 109.389 139.969 113.522C133.835 114.989 128.502 115.922 128.235 115.655C127.302 114.722 155.569 105.922 165.302 104.055C176.502 101.922 198.769 103.389 215.169 107.389C230.235 111.122 230.102 110.722 210.769 99.2553C185.969 84.5887 162.502 74.8553 145.702 72.1887C135.035 70.4553 115.302 72.4553 107.169 76.0554C99.5687 79.3887 87.8354 90.4554 74.5021 106.855C59.8354 124.989 22.1021 175.789 17.1687 184.055C6.90205 201.655 1.43539 221.389 0.235387 245.522C-1.76461 288.589 11.3021 336.589 40.6354 394.855C51.4354 416.322 74.1021 454.855 75.9687 454.855C76.5021 454.855 77.3021 453.255 77.7021 451.122C80.3687 440.189 90.1021 412.589 95.1687 402.189C101.435 389.122 108.235 380.189 130.235 355.522C138.102 346.722 151.169 331.522 159.169 321.655C182.769 292.722 198.635 280.189 211.169 280.189C218.502 280.189 221.702 282.722 221.702 288.455C221.702 301.255 204.369 324.589 159.569 371.922C127.302 405.789 111.435 435.655 107.702 468.855C103.702 505.122 122.102 531.522 169.169 557.255C178.369 562.189 207.969 574.855 210.502 574.855C211.169 574.855 209.835 569.655 207.702 563.255C202.369 547.655 199.302 529.522 200.502 519.789C201.969 506.322 209.702 486.989 233.169 438.189C246.369 410.855 267.569 383.922 279.035 380.189C283.969 378.589 284.502 378.722 286.769 381.522C288.102 383.122 289.169 385.255 289.169 386.189C289.169 391.789 282.635 411.122 272.769 434.189C259.835 464.722 257.835 470.455 255.302 484.189C250.902 508.055 251.569 531.522 257.302 552.455C260.902 565.655 265.169 572.455 272.769 577.255C287.702 586.722 308.635 589.122 353.702 586.322C389.969 584.055 396.369 584.455 432.502 591.789C461.169 597.522 473.169 598.189 477.169 594.189C478.635 592.589 484.235 579.122 489.569 564.189C499.702 535.655 503.702 527.389 522.902 494.055C536.369 470.722 543.835 453.255 544.769 442.855C545.302 436.989 544.769 433.789 541.969 426.989C540.102 422.189 537.435 417.255 536.235 415.789C532.902 412.189 517.435 404.589 493.169 394.855C468.102 384.855 456.235 378.722 448.902 372.322C443.169 367.255 441.835 362.189 445.169 358.189C447.835 354.989 460.235 355.789 481.435 360.322C503.702 365.122 514.635 369.789 537.169 384.722C549.035 392.455 552.635 394.322 553.569 392.855C557.302 386.055 567.302 348.322 569.835 330.855C572.235 315.522 571.302 309.389 565.702 301.389C555.035 286.055 517.302 265.655 473.169 251.389C429.035 237.255 422.102 234.189 417.835 227.655C410.635 216.589 432.635 210.455 468.502 213.522C493.435 215.655 516.235 221.655 556.502 236.722L565.435 240.189L564.502 233.789C562.235 217.522 555.302 186.989 551.702 176.455C541.702 147.522 522.502 114.589 498.769 85.6553C483.435 66.8553 453.969 37.522 439.835 27.1221C427.302 17.6554 406.102 6.85535 393.835 3.52203C384.635 0.988708 354.502 -0.211304 344.902 1.52203Z" fill="black"/>
</svg>
