<svg width="357" height="294" viewBox="0 0 357 294" fill="none" xmlns="http://www.w3.org/2000/svg">
<path d="M278.731 0.744141C278.118 0.849701 276.308 1.3775 274.72 1.87894C271.74 2.85535 270.068 3.0401 269.093 2.53867C268.62 2.30118 268.369 2.43311 267.422 3.33038C265.417 5.23044 263.801 5.46796 256.03 5.09848C251.879 4.88739 251.322 4.91376 250.459 5.336L249.512 5.78464L250.515 6.12769C254.08 7.28885 257.283 11.9863 255.528 13.4641C254.888 14.0183 252.715 14.0447 251.211 13.5169L250.125 13.1738L250.682 13.728C251.907 14.9683 251.991 16.4462 250.905 17.317C250.57 17.5809 250.292 17.5809 249.428 17.317C248.788 17.1059 247.172 16.974 245.306 16.974C242.771 17.0004 241.88 17.1323 240.236 17.6865C237.98 18.4254 236.225 19.3227 235.083 20.3519C234.136 21.1436 234.108 21.5131 234.916 21.6186C235.891 21.7506 235.807 22.3311 234.47 24.4687C232.994 26.791 232.354 28.9022 232.354 31.3301C232.354 33.3094 232.911 36.4762 233.746 39.1151C234.275 40.8305 234.275 40.9888 233.858 41.2263C229.735 43.5751 228.677 44.7362 226.253 49.592C225.334 51.4393 224.276 53.2602 223.914 53.6032L223.217 54.263L223.858 54.6588C225.167 55.4769 224.749 57.6145 222.799 60.0952C220.878 62.4967 220.543 63.737 220.738 67.7219C220.933 72.3929 220.71 73.554 218.761 77.3278C218.705 77.4597 218.9 77.4334 219.234 77.2486C220.237 76.7472 221.574 77.0111 221.936 77.7764C222.131 78.1459 222.382 80.2835 222.549 82.5266C222.688 84.7698 222.883 86.8282 223.022 87.0657C223.273 87.6463 222.799 87.831 218.566 88.8866C210.265 90.945 199.29 91.3409 187.647 90.0478C183.636 89.5727 176.255 88.5435 167.146 87.1713C146.116 83.9781 132.412 83.8725 120.045 86.8546C115.17 88.0157 111.688 89.2561 106.591 91.6312C95.6165 96.7244 87.0374 103.665 71.1882 120.264C59.768 132.245 54.2806 137.154 47.4006 141.508C42.0247 144.913 38.348 146.469 32.22 147.947C23.6687 150.032 16.3987 149.056 12.8334 145.388C9.57441 142.036 9.26801 137.259 12.0256 131.981C15.2845 125.648 22.2481 120.396 31.8579 116.992C33.3342 116.464 35.0611 116.042 35.7018 116.042C36.3703 116.042 38.6265 116.675 41.3841 117.599C46.7878 119.473 48.7098 119.868 51.3002 119.657C54.6706 119.393 56.899 117.836 59.4616 114.036C60.5479 112.426 61.9684 111.028 64.9489 108.679L65.6452 108.125L64.8653 108.389C64.4196 108.521 63.6954 108.653 63.2497 108.653C61.7178 108.653 62.2748 107.122 64.7817 104.536C65.4781 103.771 66.063 103.111 66.063 103.032C66.063 102.952 65.4224 103.111 64.6703 103.401C62.637 104.14 59.9351 104.034 54.8934 103.084C49.5733 102.082 47.3728 102.108 44.4759 103.243C40.4649 104.773 38.348 106.436 35.7854 110.157C34.894 111.424 33.8634 112.611 33.4734 112.77C33.0835 112.954 30.9108 113.64 28.6268 114.327C14.1982 118.707 4.11495 127.02 1.10668 137.075C0.187491 140.215 0.2432 144.965 1.24596 147.842C2.86151 152.486 6.59399 156.181 12.1649 158.688C16.2873 160.509 18.8499 161.01 24.4208 161.01C29.4624 161.037 31.3565 160.799 36.5374 159.585C48.3198 156.788 61.6899 150.27 77.1491 139.74C81.9679 136.468 82.3857 136.6 80.4637 140.875C77.9568 146.469 75.5057 154.492 74.4193 160.72C73.6116 165.312 73.4723 168.743 73.8623 172.807C74.4751 179.219 73.6673 182.677 70.1019 188.878C67.8179 192.863 67.1215 194.71 66.5087 198.379C65.6452 203.498 64.5589 205.609 61.8292 207.589C59.0716 209.568 58.2081 210.36 57.5675 211.574C56.8154 212.999 55.7569 217.854 54.9213 223.845C54.03 230.284 53.5286 232.342 51.4395 238.359C50.4089 241.262 50.1582 242.766 49.4897 249.443C48.5426 259.313 47.512 264.037 45.2837 268.734C43.7238 272.059 43.7238 272.455 45.5622 276.15C46.8435 278.789 47.512 281.111 47.8184 284.146C48.1248 287.022 50.576 290.638 53.0829 291.852C56.6204 293.567 59.8515 293.488 62.1634 291.614L63.2497 290.717L66.5366 290.77C70.3805 290.823 71.3275 290.532 73.3052 288.791C74.2801 287.92 75.06 287.497 76.3413 287.154C78.319 286.653 78.876 286.072 78.876 284.595C78.876 283.117 77.5947 279.739 76.4806 278.314C75.3107 276.783 73.8623 276.097 71.1047 275.728C66.1745 275.094 62.8319 271.901 62.9155 267.916C62.9991 265.488 64.0018 262.453 68.5699 251.158C70.4362 246.54 71.6896 242.344 72.4695 238.254C72.8038 236.459 73.3052 234.348 73.6116 233.583C74.3636 231.683 76.0906 230.126 78.9317 228.727C89.5164 223.528 99.349 216.64 105.087 210.439C108.262 207.008 110.324 203.973 113.165 198.563C116.73 191.834 118.875 188.825 120.797 187.981C122.357 187.268 122.942 187.77 123.722 190.514C124.919 194.684 124.752 199.513 123.248 204.052C121.688 208.776 117.844 214.951 112.942 220.625C108.847 225.402 108.541 226.009 108.987 228.331C109.349 230.152 109.878 231.023 112.19 233.636C121.075 243.505 126.451 252.847 131.855 267.784C132.468 269.447 133.22 271.109 133.554 271.452C133.888 271.795 135.086 272.482 136.2 273.009C137.872 273.775 138.345 274.118 138.819 274.989C140.378 277.892 144.473 280.425 148.568 281.032C150.378 281.296 151.075 281.269 153.08 280.9C155.002 280.531 156.339 280.478 159.709 280.61L163.971 280.768L164.946 280.082C165.475 279.712 166.199 279.211 166.562 278.973C166.924 278.71 168.066 278.446 169.319 278.34C171.046 278.182 171.575 278.023 171.965 277.548C172.662 276.73 172.884 275.305 172.495 274.065C171.965 272.482 169.96 269.499 168.734 268.602C167.676 267.784 167.62 267.784 164.417 267.784C162.634 267.784 160.322 267.599 159.236 267.388C156.311 266.808 152.996 265.145 150.712 263.113C146.367 259.207 143.944 255.091 139.794 244.561C138.791 242.028 137.509 238.861 136.952 237.568C135.81 234.929 135.615 233.266 136.34 231.999C136.59 231.551 138.819 229.413 141.298 227.249C155.113 215.189 161.771 205.979 164.556 195.08C165.392 191.86 166.478 190.462 168.149 190.462C168.539 190.462 170.266 190.989 171.993 191.623C179.542 194.446 186.784 195.792 197.758 196.426L200.878 196.61V197.429C200.878 200.12 202.327 202.997 206.588 208.671C211.323 214.978 212.577 217.722 212.577 221.628V223.713L214.332 222.789C216.087 221.866 217.034 221.628 217.034 222.103C217.034 222.499 219.262 223.396 221.351 223.845C223.162 224.241 223.412 224.399 225.39 226.194C227.618 228.252 229.986 229.835 234.443 232.29C240.877 235.826 244.247 238.439 246.253 241.394C248.119 244.112 248.147 244.297 246.977 245.775C244.832 248.519 245.25 248.335 242.019 248.124C239.902 247.992 238.649 248.044 237.089 248.361C234.415 248.889 234.164 248.889 232.688 248.229C231.685 247.754 231.128 247.675 229.485 247.781C227.145 247.939 226.253 248.308 224.22 250.076C221.49 252.452 220.488 255.117 221.323 257.835C222.215 260.738 224.22 261.978 228.983 262.612C231.657 262.981 231.991 263.087 233.997 264.327C237.339 266.412 238.816 266.834 242.938 266.808C245.863 266.808 247.005 266.676 250.041 265.99C252.047 265.541 254.804 265.119 256.169 265.04C263.216 264.67 269.233 260.896 271.656 255.328C272.324 253.771 272.436 253.666 273.327 253.586C274.581 253.481 274.943 253.877 276.168 256.568C276.698 257.73 278.035 260.632 279.149 263.008C281.544 268.233 282.519 270.713 283.606 274.461C284.831 278.551 285.416 279.528 288.341 282.088C291.098 284.489 292.77 286.6 293.466 288.579C294.552 291.693 298.368 293.435 304.775 293.805C307.895 293.989 310.206 293.725 313.048 292.881C314.412 292.485 315.025 292.432 317.031 292.643C321.933 293.145 324.635 292.432 326.501 290.163C327.086 289.477 327.671 288.659 327.755 288.368C327.894 287.92 328.172 287.841 329.537 287.841C330.847 287.841 331.236 287.735 331.738 287.234C332.685 286.284 332.768 285.202 332.072 283.882C331.32 282.457 326.863 278.103 325.109 277.021C323.577 276.097 322.379 276.018 318.006 276.625C314.58 277.1 311.906 277.1 310.596 276.651C308.925 276.097 304.468 272.983 302.546 271.03C298.981 267.441 298.173 264.802 297.811 255.513C297.338 243.743 296.056 235.879 292.937 225.851C292.24 223.607 291.683 221.496 291.683 221.153C291.683 220.81 292.547 218.831 293.605 216.746C299.51 205.266 302.797 194.684 304.051 183.125C304.524 178.982 304.775 178.243 307.198 174.337C309.538 170.564 310.206 168.532 310.596 164.151C310.708 162.673 310.986 161.274 311.153 161.063C311.348 160.852 311.961 160.535 312.518 160.351C313.075 160.192 313.967 159.823 314.496 159.559L315.415 159.031L316.39 160.113C316.919 160.694 317.449 161.169 317.56 161.169C317.699 161.169 317.866 160.298 317.922 159.269C318.117 156.656 318.897 155.284 322.295 151.668C325.359 148.396 326.557 146.417 327.086 143.725L327.42 141.983L329.287 141.139C333.409 139.239 337.337 135.254 339.955 130.266C341.153 128.023 341.821 127.126 343.409 125.648C346.751 122.534 348.144 118.998 349.342 110.632C350.289 103.955 350.707 102.636 352.266 101.264C352.907 100.709 353.269 100.604 354.801 100.604C355.776 100.604 356.584 100.525 356.584 100.445C356.584 100.023 354.272 98.2023 352.684 97.3842C349.899 95.9327 349.342 95.3258 349.342 93.8479C349.342 93.1354 349.537 91.8951 349.76 91.0506C351.292 85.6143 351.932 78.7529 351.319 74.293C350.623 69.4372 349.815 67.0885 346.696 60.8869C345.414 58.3534 344.3 55.8992 344.189 55.4505C344.022 54.5533 344.328 53.5505 344.997 52.9171C345.359 52.5477 345.219 52.4949 343.576 52.3365C341.515 52.1254 340.345 51.6504 339.76 50.7795C339.509 50.4628 339.203 48.9322 339.036 47.2961C337.894 36.1067 334.607 29.0606 328.451 24.6271C326.529 23.2284 324.635 22.2256 320.93 20.6158C316.78 18.8213 314.858 17.7129 313.243 16.1031L311.794 14.7044L311.348 15.3642C310.708 16.2878 309.371 16.8948 308.368 16.6837C307.115 16.4198 305.833 14.9947 302.714 10.4821C299.538 5.9166 297.198 3.38315 294.998 2.11642C292.63 0.796936 292.602 0.796936 292.602 2.03726C292.602 2.69702 292.408 3.30399 292.101 3.62067C291.6 4.14847 291.6 4.14847 290.736 3.62067C286.53 0.981659 282.436 0.00521851 278.731 0.744141ZM260.765 190.25C260.765 191.385 259.428 193.496 257.172 195.977C254.804 198.59 253.996 199.883 253.579 201.73L253.3 202.865L254.136 202.205C254.888 201.598 256.03 201.308 256.03 201.704C256.03 201.783 255.835 202.601 255.584 203.498C255.278 204.607 255.194 205.689 255.278 206.903C255.473 209.066 255.417 209.04 253.161 206.084C251.378 203.736 249.261 200.094 248.788 198.484C248.453 197.455 248.509 197.27 249.233 196.003C250.459 193.892 252.186 192.81 257.98 190.62C260.876 189.538 260.765 189.538 260.765 190.25Z" fill="#039300"/>
</svg>
