<svg width="200" height="200" viewBox="0 0 200 200" fill="none" xmlns="http://www.w3.org/2000/svg">
<g id="Frame 3">
<rect width="200" height="200" fill="white"/>
<g id="Group 3">
<path id="Vector" d="M87.3207 112.679C80.4575 105.816 76.9872 97.5984 76.9098 88.026C76.8324 78.4537 80.1995 70.2617 87.0111 63.4502C90.2621 60.1992 94.0033 57.7222 98.2347 56.0194C102.466 54.3165 106.878 53.4908 111.471 53.5424L146.148 53.852L146.458 88.5292C146.509 93.1218 145.684 97.5339 143.981 101.765C142.278 105.997 139.801 109.738 136.55 112.989C129.738 119.8 121.546 123.168 111.974 123.09C102.402 123.013 94.1839 119.542 87.3207 112.679Z" fill="#039300"/>
<path id="Vector_2" d="M112.679 87.3207C119.542 94.1839 123.013 102.402 123.09 111.974C123.168 121.546 119.801 129.738 112.989 136.55C109.738 139.801 105.997 142.278 101.765 143.981C97.5339 145.684 93.1218 146.509 88.5292 146.458L53.852 146.148L53.5424 111.471C53.4908 106.878 54.3165 102.466 56.0194 98.2347C57.7223 94.0033 60.1992 90.2621 63.4502 87.0111C70.2617 80.1995 78.4537 76.8324 88.026 76.9098C97.5984 76.9872 105.816 80.4575 112.679 87.3207Z" fill="#04B4DB"/>
<path id="Intersect" fill-rule="evenodd" clip-rule="evenodd" d="M76.9098 88.0261C76.9872 97.5984 80.4575 105.816 87.3207 112.679C94.1839 119.543 102.402 123.013 111.974 123.09C115.437 123.118 118.72 122.695 121.822 121.822C122.695 118.72 123.118 115.437 123.09 111.974C123.013 102.402 119.543 94.1839 112.679 87.3207C105.816 80.4575 97.5984 76.9872 88.0261 76.9098C84.5628 76.8818 81.2803 77.3047 78.1784 78.1784C77.3047 81.2803 76.8818 84.5628 76.9098 88.0261Z" fill="#94E5F7"/>
</g>
</g>
</svg>
