<svg width="142" height="142" viewBox="0 0 142 142" fill="none" xmlns="http://www.w3.org/2000/svg">
<path d="M58.3207 83.6793C51.4575 76.8161 47.9872 68.5983 47.9098 59.026C47.8324 49.4537 51.1995 41.2617 58.0111 34.4501C61.2621 31.1992 65.0033 28.7222 69.2347 27.0193C73.4661 25.3164 77.8782 24.4908 82.4708 24.5424L117.148 24.852L117.458 59.5291C117.509 64.1218 116.684 68.5338 114.981 72.7653C113.278 76.9967 110.801 80.7379 107.55 83.9889C100.738 90.8005 92.5463 94.1676 82.974 94.0902C73.4016 94.0128 65.1839 90.5425 58.3207 83.6793Z" fill="white"/>
<path d="M83.6793 58.3207C90.5425 65.1839 94.0128 73.4016 94.0902 82.974C94.1676 92.5463 90.8005 100.738 83.9889 107.55C80.7379 110.801 76.9967 113.278 72.7653 114.981C68.5339 116.684 64.1218 117.509 59.5292 117.458L24.852 117.148L24.5424 82.4708C24.4908 77.8782 25.3165 73.4661 27.0194 69.2347C28.7223 65.0033 31.1992 61.262 34.4502 58.0111C41.2617 51.1995 49.4537 47.8324 59.026 47.9098C68.5984 47.9872 76.8161 51.4575 83.6793 58.3207Z" fill="#4A4A4A"/>
<path fill-rule="evenodd" clip-rule="evenodd" d="M47.9098 59.0261C47.9872 68.5984 51.4575 76.8161 58.3207 83.6793C65.1839 90.5425 73.4017 94.0128 82.974 94.0902C86.4372 94.1182 89.7198 93.6953 92.8216 92.8216C93.6953 89.7197 94.1182 86.4372 94.0902 82.974C94.0128 73.4016 90.5425 65.1839 83.6793 58.3207C76.8161 51.4575 68.5984 47.9872 59.0261 47.9098C55.5628 47.8818 52.2803 48.3047 49.1784 49.1784C48.3047 52.2803 47.8818 55.5628 47.9098 59.0261Z" fill="#B8B8B8"/>
</svg>
