<svg width="22" height="22" viewBox="0 0 22 22" fill="none" xmlns="http://www.w3.org/2000/svg">
<path d="M3.69289 16.2928C3.30236 16.6833 3.30236 17.3165 3.69289 17.707C4.08341 18.0975 4.71658 18.0975 5.1071 17.707L3.69289 16.2928ZM7.39999 13.9999L8.1071 13.2928C7.71658 12.9023 7.08341 12.9023 6.69289 13.2928L7.39999 13.9999ZM9.79999 16.3999L9.09289 17.107C9.48341 17.4975 10.1166 17.4975 10.5071 17.107L9.79999 16.3999ZM15.2 10.9999L15.9071 10.2928C15.5166 9.90227 14.8834 9.90227 14.4929 10.2928L15.2 10.9999ZM18.6929 15.907C19.0834 16.2975 19.7166 16.2975 20.1071 15.907C20.4976 15.5165 20.4976 14.8833 20.1071 14.4928L18.6929 15.907ZM5.1071 17.707L8.1071 14.707L6.69289 13.2928L3.69289 16.2928L5.1071 17.707ZM6.69289 14.707L9.09289 17.107L10.5071 15.6928L8.1071 13.2928L6.69289 14.707ZM10.5071 17.107L15.9071 11.707L14.4929 10.2928L9.09289 15.6928L10.5071 17.107ZM14.4929 11.707L18.6929 15.907L20.1071 14.4928L15.9071 10.2928L14.4929 11.707ZM11 19.5999C6.25034 19.5999 2.39999 15.7495 2.39999 10.9999H0.399994C0.399994 16.8541 5.14578 21.5999 11 21.5999V19.5999ZM19.6 10.9999C19.6 15.7495 15.7496 19.5999 11 19.5999V21.5999C16.8542 21.5999 21.6 16.8541 21.6 10.9999H19.6ZM11 2.3999C15.7496 2.3999 19.6 6.25025 19.6 10.9999H21.6C21.6 5.14568 16.8542 0.399902 11 0.399902V2.3999ZM11 0.399902C5.14578 0.399902 0.399994 5.14568 0.399994 10.9999H2.39999C2.39999 6.25025 6.25034 2.3999 11 2.3999V0.399902ZM8.79999 7.9999C8.79999 8.44173 8.44182 8.7999 7.99999 8.7999V10.7999C9.54639 10.7999 10.8 9.5463 10.8 7.9999H8.79999ZM7.99999 8.7999C7.55817 8.7999 7.19999 8.44173 7.19999 7.9999H5.19999C5.19999 9.5463 6.4536 10.7999 7.99999 10.7999V8.7999ZM7.19999 7.9999C7.19999 7.55807 7.55817 7.1999 7.99999 7.1999V5.1999C6.4536 5.1999 5.19999 6.4535 5.19999 7.9999H7.19999ZM7.99999 7.1999C8.44182 7.1999 8.79999 7.55807 8.79999 7.9999H10.8C10.8 6.4535 9.54639 5.1999 7.99999 5.1999V7.1999Z" fill="black"/>
</svg>
