<svg width="24" height="25" viewBox="0 0 24 25" fill="none" xmlns="http://www.w3.org/2000/svg">
<g id="Input Icon">
<path id="Vector" d="M7.36535 15.1253C6.69548 15.1253 6.12418 14.8889 5.65145 14.4162C5.1787 13.9434 4.94232 13.3721 4.94232 12.7023C4.94232 12.0324 5.1787 11.4611 5.65145 10.9883C6.12418 10.5156 6.69548 10.2792 7.36535 10.2792C8.03522 10.2792 8.60652 10.5156 9.07925 10.9883C9.552 11.4611 9.78837 12.0324 9.78837 12.7023C9.78837 13.3721 9.552 13.9434 9.07925 14.4162C8.60652 14.8889 8.03522 15.1253 7.36535 15.1253ZM7.36535 18.0676C8.56535 18.0676 9.63233 17.7266 10.5663 17.0445C11.5003 16.3625 12.1307 15.4984 12.4576 14.4522H14.0577L15.2423 15.5118C15.3295 15.5862 15.4218 15.641 15.5192 15.6763C15.6167 15.7115 15.7224 15.7291 15.8366 15.7291C15.9507 15.7291 16.0564 15.7115 16.1538 15.6763C16.2513 15.641 16.3436 15.583 16.4308 15.5022L17.7596 14.3272L19.2404 15.4811C19.334 15.5516 19.4368 15.6061 19.549 15.6445C19.6612 15.683 19.7743 15.6939 19.8884 15.6772C20.0025 15.6605 20.1089 15.6279 20.2077 15.5791C20.3064 15.5304 20.3942 15.4625 20.4711 15.3753L22.3173 13.3196C22.4006 13.226 22.4615 13.1273 22.4999 13.0234C22.5384 12.9196 22.5576 12.8074 22.5576 12.6869C22.5576 12.5664 22.5358 12.4568 22.4923 12.358C22.4487 12.2593 22.3852 12.1683 22.3019 12.085L21.4403 11.2234C21.3467 11.1298 21.2439 11.0612 21.1317 11.0177C21.0195 10.9741 20.9032 10.9523 20.7827 10.9523H12.4576C12.141 9.94717 11.5233 9.09333 10.6048 8.39076C9.68617 7.6882 8.60637 7.33691 7.36535 7.33691C5.86537 7.33691 4.59615 7.85615 3.5577 8.89461C2.51923 9.93306 2 11.2023 2 12.7023C2 14.2022 2.51923 15.4715 3.5577 16.5099C4.59615 17.5484 5.86537 18.0676 7.36535 18.0676Z" fill="#696969"/>
</g>
</svg>
