<svg width="48" height="48" viewBox="0 0 48 48" fill="none" xmlns="http://www.w3.org/2000/svg">
<path d="M46 26.0001V42.0001C46 42.5305 45.7893 43.0392 45.4142 43.4143C45.0391 43.7893 44.5304 44.0001 44 44.0001H4C3.46957 44.0001 2.96086 43.7893 2.58579 43.4143C2.21071 43.0392 2 42.5305 2 42.0001V26.0001C2 25.4696 2.21071 24.9609 2.58579 24.5858C2.96086 24.2108 3.46957 24.0001 4 24.0001C4.53043 24.0001 5.03914 24.2108 5.41421 24.5858C5.78929 24.9609 6 25.4696 6 26.0001V40.0001H42V26.0001C42 25.4696 42.2107 24.9609 42.5858 24.5858C42.9609 24.2108 43.4696 24.0001 44 24.0001C44.5304 24.0001 45.0391 24.2108 45.4142 24.5858C45.7893 24.9609 46 25.4696 46 26.0001ZM24 36.0001C24.5304 36.0001 25.0391 35.7893 25.4142 35.4143C25.7893 35.0392 26 34.5305 26 34.0001V10.8281L30.586 15.4141C30.9632 15.7784 31.4684 15.98 31.9928 15.9754C32.5172 15.9709 33.0188 15.7605 33.3896 15.3897C33.7605 15.0189 33.9708 14.5173 33.9753 13.9929C33.9799 13.4685 33.7783 12.9633 33.414 12.5861L25.414 4.58606C25.0389 4.21112 24.5303 4.00049 24 4.00049C23.4697 4.00049 22.9611 4.21112 22.586 4.58606L14.586 12.5861C14.395 12.7706 14.2426 12.9912 14.1378 13.2353C14.033 13.4793 13.9778 13.7417 13.9755 14.0073C13.9732 14.2728 14.0238 14.5362 14.1244 14.782C14.2249 15.0278 14.3734 15.2511 14.5612 15.4389C14.749 15.6266 14.9723 15.7751 15.2181 15.8757C15.4639 15.9763 15.7272 16.0269 15.9928 16.0246C16.2584 16.0223 16.5208 15.9671 16.7648 15.8623C17.0088 15.7574 17.2295 15.6051 17.414 15.4141L22 10.8281V34.0001C22 34.5305 22.2107 35.0392 22.5858 35.4143C22.9609 35.7893 23.4696 36.0001 24 36.0001Z" fill="#3C3C3C"/>
</svg>
