<svg width="66" height="66" viewBox="0 0 66 66" fill="none" xmlns="http://www.w3.org/2000/svg">
<path id="Vector" d="M33 31.5581C28.8167 31.5581 25.2431 30.0372 22.2792 26.9953C19.3153 23.9535 17.8334 20.2858 17.8334 15.9925C17.8334 11.699 19.3153 8.03137 22.2792 4.9895C25.2431 1.94763 28.8167 0.426697 33 0.426697C37.1833 0.426697 40.7569 1.94763 43.7208 4.9895C46.6847 8.03137 48.1666 11.699 48.1666 15.9925C48.1666 20.2858 46.6847 23.9535 43.7208 26.9953C40.7569 30.0372 37.1833 31.5581 33 31.5581ZM0.5 58.6702V55.5399C0.5 53.3619 1.07641 51.3449 2.22922 49.489C3.38196 47.6331 4.92222 46.2062 6.84998 45.2084C11.1333 43.0531 15.4542 41.4367 19.8125 40.3591C24.1709 39.2815 28.5667 38.7427 33 38.7427C37.4333 38.7427 41.8291 39.2815 46.1875 40.3591C50.5458 41.4367 54.8666 43.0531 59.15 45.2084C61.0778 46.2062 62.618 47.6331 63.7708 49.489C64.9236 51.3449 65.5 53.3619 65.5 55.5399V58.6702C65.5 60.5461 64.8597 62.1411 63.5791 63.4553C62.2986 64.7696 60.7445 65.4267 58.9168 65.4267H7.08322C5.25549 65.4267 3.70137 64.7696 2.42086 63.4553C1.14029 62.1411 0.5 60.5461 0.5 58.6702Z" fill="black"/>
</svg>
